<?xml version="1.0" standalone="yes"?>
<svg xmlns="http://www.w3.org/2000/svg" width="193" height="196">
<path style="fill:#ffffff; stroke:none;" d="M0 0L0 196L193 196L193 0L0 0z"/>
<path style="fill:#ffce90; stroke:none;" d="M87 3L87.7222 3.72221L88.25 3.75L90 4L89.2778 3.27779L88.75 3.25L87 3z"/>
<path style="fill:#feab40; stroke:none;" d="M90 3L90.7222 3.72221L91.25 3.75L93 4L92.2778 3.27779L91.75 3.25L90 3z"/>
<path style="fill:#fe8f00; stroke:none;" d="M63 115L64.5 114.222L65.0556 113.722L66.0556 112.972L68 111.5L70 110.472L71 110.167L72 109.861L74 109.389L76 109.056L77 108.944L79 108.611L80 108.389L82 108.083L83 108.028L84 108L86 107.972L87 107.917L89 107.611L90 107.389L92 107.083L93 107.028L95 107L97 107L99 107L101 107.028L102 107.083L104 107.389L105 107.611L107 107.917L108 107.972L110 108.028L111 108.083L113 108.389L115 108.861L116 109.139L118 109.611L119 109.806L121 110.222L122 110.472L124 111.25L125 111.778L126 112.222L127 112.778L128 113.25L130 114.389L131.944 115.583L132.944 116.111L133.5 116.472L135 117L135 114.944L134.972 113.944L134.917 113L134.611 111L134.389 110L134.083 108L134.028 107L134 105L134 104L134.028 102L134.083 101L134.389 99L134.611 98L134.944 96L135.222 94L135.417 93L136.083 91L137.083 89.0278L137.667 88.1111L138.361 87.3056L138.75 86.7778L140 86L139.222 85.2778L138.694 85.25L137.889 85.0556L136 85.0278L135 85.0833L133.028 85.5L132.083 85.9444L130.5 87.25L129.5 89.0278L129.25 90L129.083 91L129 93L129 95L129 98L129 100L128.889 102L128.667 103L128.278 103.972L126.889 105.583L125.972 106.028L125 106.194L123 105.778L121 105.028L120 104.667L119 104.333L118 104L116 103.417L114 103L113 102.806L111 102.389L109 102.083L107 101.917L106 101.778L104 101.389L103 101.222L102 101.083L100 101L98 101L96 101L94 101.083L93 101.222L91 101.611L89 101.917L88 101.972L86 102.083L85 102.222L83 102.611L81 102.917L80 102.972L78 103L76 103L75 102.972L73 102.667L71.1111 101.667L69.7222 99.9722L69.1111 98.0556L69 96.5L69 95L70 94L71.5 94L73.0556 93.9167L75 93.6111L76 93.3611L77 93.1389L79 92.6389L80 92.3889L82 92.0833L84 91.9722L85 91.9167L87 91.6111L88 91.3889L90 91.0833L91 91.0278L93 91L95 91L97 91L98 91L100 91.0833L101 91.2222L102 91.3889L104 91.7778L105 91.9167L107 92.0833L109 92.3889L110 92.6389L112 93.1389L114 93.6389L115 93.8611L116 94.1389L116.944 94.3611L118.5 94.75L120 95L119.222 93.5833L117.889 92.4444L116 91.4167L114 90.6111L112 89.8333L111 89.4444L109 88.8611L108 88.6389L107 88.3889L105 88.0833L103 87.9722L102 87.9167L100 87.6111L99 87.3889L97 87.0833L96 87.0278L94 87L92 87L90 87L89 87.0278L88 87.0833L86 87.3889L85 87.6111L83 87.9167L82 87.9722L80 88L79 88.0278L78 88.0833L76 88.3889L75 88.6111L73 88.9167L72.0556 88.9722L71.0556 89L69 89L68.9722 86.9444L68.9167 85.9444L68.6111 84L68.3889 83L68.0833 81.0556L68 79L69.5 78.5L70.0556 78.1944L71.0556 77.8056L73 77.0278L75 76.3889L76 76.1389L77 75.8611L79 75.3889L81 75L83 74.6111L84 74.3889L86 74.0833L87 74.0278L89 74L90 74L93 74L95 74L96 74L98 74.0278L99 74.0833L101 74.3889L102 74.6111L104 74.9167L106 75.0278L107 75.0833L109 75.3889L110 75.6111L111 75.8056L113 76.1944L114 76.3889L115 76.6111L117 76.9444L119 77.2222L120 77.4167L122 78L123 78.3333L125 79.0278L126 79.3889L127 79.8056L128 80.1944L129 80.6111L131 81.3056L132 81.5833L134 82L136 82.3889L137 82.6111L139 82.9167L140 82.9722L142 82.9167L144 82.6111L145 82.3889L147 82L148 81.7778L149 81.5278L151 80.75L152 80.2222L154 79.1389L155 78.5278L156.972 76.9167L157.917 75.9722L159.583 74L160.278 73L160.917 72L161.917 70L162.278 69L162.583 68L162.917 66L163 64L163 63L163 61L163 59L162.972 58L162.917 57L162.528 55L161.75 53L161.222 52L160.75 51L159.556 49L158.833 48L158.139 47L156.611 45.0833L154.917 43.3889L153.972 42.6389L152 41.1389L151 40.3889L149 39.0278L148 38.4167L146 37.4167L144 36.6111L142 35.8333L141.056 35.4722L139.5 35.0833L138 35L138.778 36.0833L139.306 36.4722L140.111 37.2778L141.917 39.0278L143.611 41L145.222 43L147 45L148.778 47L149.583 48L150.306 49L151.611 51L152.75 53L153.222 54L153.75 55L154.556 57L154.833 58L155.139 59L155.528 61L155.5 63L155.278 64L154.583 66L154.083 67L153.5 68L151.917 70L150.972 70.9722L150 71.9167L148 73.5833L146 74.9722L145 75.5833L143 76.5833L141 77.3889L139 78.1667L137 78.6667L135 78.5L133 77.75L132 77.2222L130 76.2222L129 75.7778L128 75.25L127 74.8333L126 74.3889L124 73.6667L122 73L120 72.3333L118 71.6944L117 71.4167L115 71.0556L114 70.9444L112 70.6111L110 70.2222L109 70.0833L107 69.9167L105 69.6111L104 69.3889L102 69.0833L101 69.0278L99 69L98 69L96 69L89 69L87 69L86 69L84 69.0278L83 69.0833L81 69.3889L80 69.6111L78 69.9167L76 70.0278L75 70.0833L73 70.3889L71 70.7778L69 71.0556L67 71.3889L65 71.8056L63 72.1944L62 72.3889L61 72.6389L59 73.1111L57 73.3611L56 73.3056L55 73.0556L54 72.6944L52 71.5278L51.0278 70.75L50.0833 69.9167L48.4722 68L47.25 66L46.7778 65L46.25 64L45.4444 62L45.1667 61L44.6389 59L44.3889 58L44.0833 56L44.0278 55L44.0833 53L44.3889 51L44.6389 50L45.1389 48L45.3889 47L46.0278 45L46.3889 44L47.25 42L47.7778 41L48.25 40L48.8611 39L49.4444 38L50.8611 36L51.6389 35L52.3889 34L54.0833 32.0833L56 30.3889L57 29.6389L57.9444 28.8889L58.9444 28.2222L59.5 27.75L61 27L61 35L61 37L61.0278 39L61.0833 40L61.3889 42L61.6389 43L61.8611 44L62.1389 45L62.3611 45.9444L62.75 47.5L63 49L63.7222 48.2222L63.75 47.6944L63.9444 46.8889L63.9722 45.9722L64 44L64 42L64 39L64 38L64.0278 36L64.0833 35L64.3889 33L64.6389 32L65.1389 30L65.3889 29L65.6944 28L66.3889 26L66.8333 25L67.2778 24L68.4722 22L70.0833 20L71.0278 19.0278L72 18.0833L74 16.4722L75 15.8611L76 15.2778L77 14.8333L79 14L81 13.1944L82 12.8333L83 12.4722L84 12.2222L86 11.8056L87 11.6111L88 11.3889L90 11.0833L91 11.0278L92 11L94 11L96 11L98 11.0833L99 11.2222L101 11.6389L103 12.1389L104 12.3889L106 13.0278L107 13.3889L109 14.25L110 14.7778L111 15.25L112 15.8333L113 16.3889L114 17.0278L116 18.4167L118 20.0833L119 21.0278L121 23L122.917 25L124.583 27L125.306 28L126.611 30L127.167 31L127.75 32L128.222 33L128.75 34L129.611 36L129.972 37L130.667 39L131.306 41L131.611 42L131.861 43L132.139 44L132.611 46L132.917 47.9444L133 50L133.722 49.2222L133.75 48.6944L133.944 47.8889L133.972 46.9722L134.028 45L134.083 44L134.389 42L134.611 41L134.917 39L135 37L135 36L135 34L135 32L134.972 30L134.917 29L134.611 27L134.361 26L133.861 24L133.611 23L132.972 21L132.583 20L132.083 19L131.5 18L129.917 16L128.972 15L127 13.0833L125 11.4167L124 10.6944L122 9.38889L120 8.25L119 7.77777L118 7.25L116 6.38889L115 6.02777L113 5.38889L112 5.13889L110 4.63889L108 4.22223L107 4.08333L105 3.91667L104 3.77777L103 3.61111L102 3.38889L100 3.08333L98 3L96 3.02777L95 3.08333L93 3.38889L92 3.61111L90 3.91667L88 4.02777L87 4.08333L85 4.38889L83 4.80556L81 5.22223L80 5.47223L78 6.25L77 6.77777L75 7.77777L74 8.25L73 8.83333L72 9.38889L70 10.6944L69 11.4167L67.0833 13.0833L65.4167 15L64 17L62.5833 18.8889L60.9167 20.3611L59.9722 20.8889L59 21.3056L57 22.0278L56 22.4167L54 23.4167L53 24.0278L51 25.3333L50 26L48 27.4167L46 29.0833L44.0833 31L42.4167 33L41.0278 35L40.3889 36L39.2778 38L38.8333 39L38.3889 40L38.0278 41L37.3889 43L37.1389 44L36.8611 45L36.6389 46L36.3889 47L36.0833 49L36.0278 50L36 52L36 54L36 56L36.0833 58L36.4722 60L36.8333 61L37.6389 63L38.5556 65L39.0833 66L40.4167 68L42.0833 70L44 71.9167L46 73.5278L47 74.1389L49 75.2222L50 75.75L52 76.6111L54 77.3333L55 77.6667L56.9722 78.4167L58.75 79.5L60.0833 81.0833L60.9722 83L61.6111 85L61.8611 86L62.3611 88L62.6111 89L62.9167 91L62.9722 92L63 94L63 96L63 115z"/>
<path style="fill:#feb960; stroke:none;" d="M102.667 3.33333L102.667 3.66667L103.333 3.66667L103 3.33333L102.667 3.33333z"/>
<path style="fill:#ffd5a0; stroke:none;" d="M104 3L104.722 3.72221L105.25 3.75L107 4L106.278 3.27779L105.75 3.25L104 3z"/>
<path style="fill:#feb250; stroke:none;" d="M83.6667 4.33333L83.6667 4.66667L84.3333 4.66667L84 4.33333L83.6667 4.33333z"/>
<path style="fill:#feb960; stroke:none;" d="M109 4L110 5L109 4z"/>
<path style="fill:#ffce90; stroke:none;" d="M113 5L114 6L113 5M77 6L78 7L77 6z"/>
<path style="fill:#ffd5a0; stroke:none;" d="M116 6L117 7L116 6z"/>
<path style="fill:#feb960; stroke:none;" d="M75 7L76 8L75 7z"/>
<path style="fill:#ffc780; stroke:none;" d="M118 7L119 8L118 7M73 8L74 9L73 8M120 8L121 9L120 8z"/>
<path style="fill:#ffdcaf; stroke:none;" d="M71 9L72 10L71 9M122 9L123 10L122 9z"/>
<path style="fill:#feb960; stroke:none;" d="M70 10L71 11L70 10z"/>
<path style="fill:#feb250; stroke:none;" d="M123 10L124 11L123 10z"/>
<path style="fill:#fec77f; stroke:none;" d="M87.6667 11.3333L88 11.6667L88.3333 11.6667L88 11.3333L87.6667 11.3333z"/>
<path style="fill:#ffe3bf; stroke:none;" d="M89 11L89.7778 11.7222L90.25 11.75L91.0556 11.9444L93 12L92.2222 11.2778L91.75 11.25L90.9444 11.0556L89 11M95 11L95.7222 11.7222L96.25 11.75L98 12L97.2778 11.2778L96.75 11.25L95 11z"/>
<path style="fill:#fec77f; stroke:none;" d="M98 11L98.7222 11.7222L99.25 11.75L101 12L100.278 11.2778L99.75 11.25L98 11z"/>
<path style="fill:#ffdcaf; stroke:none;" d="M125 11L126 12L125 11z"/>
<path style="fill:#fec77f; stroke:none;" d="M82.6667 12.3333L83 12.6667L83.3333 12.6667L83 12.3333L82.6667 12.3333z"/>
<path style="fill:#ffdcaf; stroke:none;" d="M103 12L104 13L103 12z"/>
<path style="fill:#feb95f; stroke:none;" d="M104 12L105 13L104 12z"/>
<path style="fill:#ffce90; stroke:none;" d="M126 12L127 13L126 12z"/>
<path style="fill:#ffce8f; stroke:none;" d="M80 13L81 14L80 13z"/>
<path style="fill:#feb95f; stroke:none;" d="M107 13L108 14L107 13z"/>
<path style="fill:#feb960; stroke:none;" d="M127 13L128 14L127 13z"/>
<path style="fill:#feb95f; stroke:none;" d="M77 14L78 15L77 14z"/>
<path style="fill:#ffce8f; stroke:none;" d="M109 14L110 15L109 14z"/>
<path style="fill:#feb960; stroke:none;" d="M128 14L129 15L128 14z"/>
<path style="fill:#feb95f; stroke:none;" d="M75 15L76 16L75 15z"/>
<path style="fill:#ffd59f; stroke:none;" d="M111 15L112 16L111 15z"/>
<path style="fill:#feb960; stroke:none;" d="M129 15L130 16L129 15M64 16L65 17L64 16z"/>
<path style="fill:#feb24f; stroke:none;" d="M73 16L74 17L73 16z"/>
<path style="fill:#fec77f; stroke:none;" d="M113 16L114 17L113 16z"/>
<path style="fill:#ffce8f; stroke:none;" d="M130 16L131 17L130 16z"/>
<path style="fill:#ffdcaf; stroke:none;" d="M63 17L64 18L63 17z"/>
<path style="fill:#ffd59f; stroke:none;" d="M72 17L73 18L72 17z"/>
<path style="fill:#fec06f; stroke:none;" d="M116 18L117 19L116 18z"/>
<path style="fill:#fec77f; stroke:none;" d="M62 19L63 20L62 19z"/>
<path style="fill:#ffd59f; stroke:none;" d="M117 19L118 20L117 19M132 19L133 20L132 19z"/>
<path style="fill:#fec070; stroke:none;" d="M61 20L62 21L61 20z"/>
<path style="fill:#ffdcaf; stroke:none;" d="M69 20L70 21L69 20z"/>
<path style="fill:#feb960; stroke:none;" d="M58 21L59 22L58 21z"/>
<path style="fill:#fec77f; stroke:none;" d="M68 21L69 22L68 21z"/>
<path style="fill:#ffd59f; stroke:none;" d="M133 21L134 22L133 21z"/>
<path style="fill:#ffd5a0; stroke:none;" d="M55 22L56 23L55 22z"/>
<path style="fill:#feb24f; stroke:none;" d="M133 22L134 23L133 22z"/>
<path style="fill:#ffce8f; stroke:none;" d="M67 23L68 24L67 23z"/>
<path style="fill:#feb250; stroke:none;" d="M52 24L53 25L52 24z"/>
<path style="fill:#ffdcaf; stroke:none;" d="M122 24L123 25L122 24z"/>
<path style="fill:#feb95f; stroke:none;" d="M134 24L134 27L134.694 26.25L134.694 25.1944L134.694 24.75L134 24z"/>
<path style="fill:#ffce90; stroke:none;" d="M50 25L51 26L50 25z"/>
<path style="fill:#fec06f; stroke:none;" d="M66 25L67 26L66 25z"/>
<path style="fill:#fec77f; stroke:none;" d="M123 25L124 26L123 25z"/>
<path style="fill:#feb250; stroke:none;" d="M49 26L50 27L49 26z"/>
<path style="fill:#feb24f; stroke:none;" d="M124 26L125 27L124 26z"/>
<path style="fill:#feab3f; stroke:none;" d="M59 27L59.5833 29.0556L59.7778 30.0556L59.9167 31L60 32.9444L60 33.9444L60 36L60.7222 35.2222L60.75 34.6944L60.9444 33.8889L60.9722 32.9722L61 31L60.8889 29.1111L60.7222 28.3333L60.1389 27.3611L59 27z"/>
<path style="fill:#ffdcaf; stroke:none;" d="M46 28L47 29L46 28M58 28L59 29L58 28z"/>
<path style="fill:#ffd59f; stroke:none;" d="M65.3333 28.6667L65.3333 29.3333L65.6667 29.3333L65.6667 29L65.3333 28.6667z"/>
<path style="fill:#ffdcaf; stroke:none;" d="M125 28L126 29L125 28z"/>
<path style="fill:#ffd59f; stroke:none;" d="M45 29L46 30L45 29z"/>
<path style="fill:#feb24f; stroke:none;" d="M126 29L127 30L126 29z"/>
<path style="fill:#ffe3bf; stroke:none;" d="M135 29L135 32L135.694 31.25L135.694 30.1944L135.694 29.75L135 29z"/>
<path style="fill:#ffd59f; stroke:none;" d="M44 30L45 31L44 30z"/>
<path style="fill:#feb95f; stroke:none;" d="M55 30L56 31L55 30M54 31L55 32L54 31M127 31L128 32L127 31z"/>
<path style="fill:#fec06f; stroke:none;" d="M53 32L54 33L53 32z"/>
<path style="fill:#feab3f; stroke:none;" d="M64.3333 32.6667L64.3333 33L64.6667 33.3333L64.6667 33L64.3333 32.6667z"/>
<path style="fill:#ffce8f; stroke:none;" d="M135.333 32.6667L135.333 33L135.667 33.3333L135.667 33L135.333 32.6667z"/>
<path style="fill:#feb95f; stroke:none;" d="M52 33L53 34L52 33z"/>
<path style="fill:#fec77f; stroke:none;" d="M128 33L129 34L128 33z"/>
<path style="fill:#fec06f; stroke:none;" d="M41 34L42 35L41 34z"/>
<path style="fill:#fec77f; stroke:none;" d="M64 34L64 37L64.6944 36.25L64.6944 35.1944L64.6944 34.75L64 34z"/>
<path style="fill:#ffe3bf; stroke:none;" d="M135 34L135 38L135.722 37.2222L135.722 36.7222L135.889 36L135.722 34.7778L135 34z"/>
<path style="fill:#ffce90; stroke:none;" d="M137.667 34.3333L138 34.6667L138.333 34.6667L138 34.3333L137.667 34.3333z"/>
<path style="fill:#feb24f; stroke:none;" d="M129 35L130 36L129 35z"/>
<path style="fill:#ffc780; stroke:none;" d="M141 35L142 36L141 35z"/>
<path style="fill:#ffdcaf; stroke:none;" d="M50 36L51 37L50 36z"/>
<path style="fill:#fec77f; stroke:none;" d="M60 36L60 39L60.6944 38.25L60.6944 37.1944L60.6944 36.75L60 36z"/>
<path style="fill:#ffdcaf; stroke:none;" d="M129 36L130 37L129 36z"/>
<path style="fill:#feb95f; stroke:none;" d="M139 36L140 37L139 36z"/>
<path style="fill:#feb960; stroke:none;" d="M143 36L144 37L143 36z"/>
<path style="fill:#ffd59f; stroke:none;" d="M39 37L40 38L39 37z"/>
<path style="fill:#feb24f; stroke:none;" d="M49 37L50 38L49 37z"/>
<path style="fill:#ffe3bf; stroke:none;" d="M64 37L64 46L64.7222 45.2222L64.75 44.6944L64.9444 43.8889L64.9722 42.9722L65 41L64.9444 39.1111L64.75 38.3056L64.7222 37.7778L64 37z"/>
<path style="fill:#feb95f; stroke:none;" d="M140 37L141 38L140 37z"/>
<path style="fill:#fec06f; stroke:none;" d="M130 38L131 39L130 38z"/>
<path style="fill:#feb95f; stroke:none;" d="M141 38L142 39L141 38z"/>
<path style="fill:#ffd59f; stroke:none;" d="M38 39L39 40L38 39M48 39L49 40L48 39z"/>
<path style="fill:#feb95f; stroke:none;" d="M142 39L143 40L142 39z"/>
<path style="fill:#fec070; stroke:none;" d="M149 39L150 40L149 39z"/>
<path style="fill:#feb24f; stroke:none;" d="M143 40L144 41L143 40z"/>
<path style="fill:#ffdcaf; stroke:none;" d="M37 41L38 42L37 41z"/>
<path style="fill:#ffd59f; stroke:none;" d="M47 41L48 42L47 41z"/>
<path style="fill:#feb95f; stroke:none;" d="M131 41L132 42L131 41z"/>
<path style="fill:#feab3f; stroke:none;" d="M134.333 41.6667L134.333 42L134.667 42.3333L134.667 41.6667L134.333 41.6667z"/>
<path style="fill:#ffc780; stroke:none;" d="M152 41L153 42L152 41z"/>
<path style="fill:#feb24f; stroke:none;" d="M37 42L38 43L37 42z"/>
<path style="fill:#fec06f; stroke:none;" d="M61 42L61 45L61.6944 44.25L61.6944 43.1944L61.6944 42.75L61 42z"/>
<path style="fill:#feb960; stroke:none;" d="M153 42L154 43L153 42z"/>
<path style="fill:#fec06f; stroke:none;" d="M46 43L47 44L46 43z"/>
<path style="fill:#fec77f; stroke:none;" d="M134.333 43.6667L134.333 44L134.667 44.3333L134.667 43.6667L134.333 43.6667z"/>
<path style="fill:#feb95f; stroke:none;" d="M36 44L36 47L36.6944 46.25L36.6944 45.1944L36.6944 44.75L36 44z"/>
<path style="fill:#ffce8f; stroke:none;" d="M132 45L132 48L132.694 47.25L132.694 46.1944L132.694 45.75L132 45z"/>
<path style="fill:#ffe3bf; stroke:none;" d="M134.333 45.6667L134.333 46L134.667 46.3333L134.667 46L134.333 45.6667z"/>
<path style="fill:#ffdcaf; stroke:none;" d="M147 45L148 46L147 45z"/>
<path style="fill:#ffe3bf; stroke:none;" d="M45.3333 46.6667L45.3333 47L45.6667 47.3333L45.6667 47L45.3333 46.6667z"/>
<path style="fill:#feb24f; stroke:none;" d="M62 46L63 47L62 46z"/>
<path style="fill:#fec77f; stroke:none;" d="M64 46L63.6667 48L63.6389 49L63.5278 49.5L64 51L64.7222 50.2222L64.75 49.6944L64.9167 48.0833L64.75 47.3056L64.7222 46.7778L64 46z"/>
<path style="fill:#ffce8f; stroke:none;" d="M148 46L149 47L148 46z"/>
<path style="fill:#feb250; stroke:none;" d="M157 46L158 47L157 46z"/>
<path style="fill:#ffdcaf; stroke:none;" d="M62 47L63 48L62 47z"/>
<path style="fill:#feb24f; stroke:none;" d="M149 47L150 48L149 47z"/>
<path style="fill:#fec06f; stroke:none;" d="M158 47L159 48L158 47z"/>
<path style="fill:#fec77f; stroke:none;" d="M35 48L35 57L35.7222 56.2222L35.75 55.6944L35.9444 54.8889L35.9722 53.9722L36 52L35.9444 50.1111L35.75 49.3056L35.7222 48.7778L35 48z"/>
<path style="fill:#ffdcaf; stroke:none;" d="M150 49L151 50L150 49z"/>
<path style="fill:#fec77f; stroke:none;" d="M44 50L44 53L44.6944 52.25L44.6944 51.1944L44.6944 50.75L44 50z"/>
<path style="fill:#ffdcaf; stroke:none;" d="M133.333 50.6667L133.333 51L133.667 51.3333L133.667 50.6667L133.333 50.6667z"/>
<path style="fill:#feb95f; stroke:none;" d="M151 50L152 51L151 50z"/>
<path style="fill:#fec77f; stroke:none;" d="M160 50L161 51L160 50M152 52L153 53L152 52z"/>
<path style="fill:#feb95f; stroke:none;" d="M161 52L162 53L161 52z"/>
<path style="fill:#ffe3bf; stroke:none;" d="M44 53L44 56L44.6944 55.25L44.6944 54.1944L44.6944 53.75L44 53z"/>
<path style="fill:#ffce8f; stroke:none;" d="M153 54L154 55L153 54z"/>
<path style="fill:#ffd59f; stroke:none;" d="M162 54L163 55L162 54z"/>
<path style="fill:#fec77f; stroke:none;" d="M44 56L44 59L44.6944 58.25L44.6944 57.1944L44.6944 56.75L44 56z"/>
<path style="fill:#feb24f; stroke:none;" d="M154 56L155 57L154 56z"/>
<path style="fill:#ffd59f; stroke:none;" d="M154 57L155 58L154 57z"/>
<path style="fill:#fec77f; stroke:none;" d="M163.333 58.6667L163.333 59L163.667 59.3333L163.667 59L163.333 58.6667z"/>
<path style="fill:#ffce8f; stroke:none;" d="M36 60L37 61L36 60z"/>
<path style="fill:#feb24f; stroke:none;" d="M155 60L155 64L155.722 63.2222L155.722 62.7222L155.889 62L155.722 60.7778L155 60z"/>
<path style="fill:#feab3f; stroke:none;" d="M163 60L163 64L163.722 63.2222L163.889 62L163.722 61.2778L163.722 60.7778L163 60z"/>
<path style="fill:#feb24f; stroke:none;" d="M37 62L38 63L37 62z"/>
<path style="fill:#feb95f; stroke:none;" d="M45 62L46 63L45 62z"/>
<path style="fill:#ffdcaf; stroke:none;" d="M37 63L38 64L37 63M46 64L47 65L46 64z"/>
<path style="fill:#ffd59f; stroke:none;" d="M163.333 64.6667L163.333 65L163.667 65.3333L163.667 65L163.333 64.6667z"/>
<path style="fill:#feb24f; stroke:none;" d="M39 66L40 67L39 66z"/>
<path style="fill:#ffdcaf; stroke:none;" d="M47 66L48 67L47 66z"/>
<path style="fill:#fec06f; stroke:none;" d="M154 66L155 67L154 66z"/>
<path style="fill:#feb960; stroke:none;" d="M48 68L49 69L48 68z"/>
<path style="fill:#ffe3c0; stroke:none;" d="M83 68L83.7778 68.7222L84.3056 68.75L85.0556 68.9444L85.9722 68.9722L88 69L87.2222 68.2778L86.6944 68.25L85.9444 68.0556L85.0278 68.0278L83 68z"/>
<path style="fill:#ffc780; stroke:none;" d="M88 68L88.7778 68.7222L89.3056 68.75L90.1111 68.9444L91.0278 68.9722L93 69L94.9444 69L98 69L97.2222 68.2778L96.6944 68.25L95.8889 68.0556L94.9722 68.0278L93 68L91.0556 68L88 68z"/>
<path style="fill:#ffe3c0; stroke:none;" d="M98 68L98.7778 68.7222L99.25 68.75L100.056 68.9444L102 69L101.222 68.2778L100.75 68.25L99.9444 68.0556L98 68z"/>
<path style="fill:#fec06f; stroke:none;" d="M153 68L154 69L153 68M162 68L163 69L162 68z"/>
<path style="fill:#ffd59f; stroke:none;" d="M41 69L42 70L41 69M49 69L50 70L49 69z"/>
<path style="fill:#ffe3c0; stroke:none;" d="M74.6667 69.3333L75 69.6667L75.3333 69.6667L75.3333 69.3333L74.6667 69.3333z"/>
<path style="fill:#ffc780; stroke:none;" d="M76.6667 69.3333L76.6667 69.6667L77.3333 69.6667L77.3333 69.3333L76.6667 69.3333z"/>
<path style="fill:#feab40; stroke:none;" d="M78 69L78.7222 69.7222L79.25 69.75L81 70L80.2778 69.2778L79.75 69.25L78 69M104 69L104.722 69.7222L105.25 69.75L107 70L106.278 69.2778L105.75 69.25L104 69z"/>
<path style="fill:#ffd5a0; stroke:none;" d="M107 69L107.722 69.7222L108.25 69.75L110 70L109.278 69.2778L108.75 69.25L107 69z"/>
<path style="fill:#ffd59f; stroke:none;" d="M42 70L43 71L42 70M50 70L51 71L50 70z"/>
<path style="fill:#ffd5a0; stroke:none;" d="M68 70L68.7222 70.7222L69.25 70.75L71 71L70.2778 70.2778L69.75 70.25L68 70z"/>
<path style="fill:#fea430; stroke:none;" d="M71.6667 70.3333L71.6667 70.6667L72.3333 70.6667L72.3333 70.3333L71.6667 70.3333z"/>
<path style="fill:#fec070; stroke:none;" d="M111.667 70.3333L112 70.6667L112.333 70.6667L112.333 70.3333L111.667 70.3333z"/>
<path style="fill:#ffeacf; stroke:none;" d="M113.667 70.3333L114 70.6667L114.333 70.6667L114.333 70.3333L113.667 70.3333z"/>
<path style="fill:#ffd59f; stroke:none;" d="M43 71L44 72L43 71z"/>
<path style="fill:#ffc780; stroke:none;" d="M51 71L52 72L51 71z"/>
<path style="fill:#ffd5a0; stroke:none;" d="M63.6667 71.3333L63.6667 71.6667L64.3333 71.6667L64 71.3333L63.6667 71.3333z"/>
<path style="fill:#fea430; stroke:none;" d="M65.6667 71.3333L66 71.6667L66.3333 71.6667L66.3333 71.3333L65.6667 71.3333z"/>
<path style="fill:#ffce90; stroke:none;" d="M117 71L118 72L117 71z"/>
<path style="fill:#fec070; stroke:none;" d="M59 72L59.7222 72.7222L60.25 72.75L62 73L61.2778 72.2778L60.75 72.25L59 72M120 72L121 73L120 72z"/>
<path style="fill:#fec06f; stroke:none;" d="M160 72L161 73L160 72z"/>
<path style="fill:#feb960; stroke:none;" d="M55 73L55.7222 73.7222L56.25 73.75L58 74L57.2778 73.2778L56.75 73.25L55 73M123 73L124 74L123 73z"/>
<path style="fill:#ffce90; stroke:none;" d="M148 73L149 74L148 73z"/>
<path style="fill:#ffd59f; stroke:none;" d="M47 74L48 75L47 74z"/>
<path style="fill:#feab3f; stroke:none;" d="M83 74L83.7222 74.7222L84.25 74.75L86 75L85.2778 74.2778L84.75 74.25L83 74z"/>
<path style="fill:#fec77f; stroke:none;" d="M86 74L86.7778 74.7222L87.3056 74.75L88.1111 74.9444L89.0278 74.9722L91 75L93 75L98 75L97.2222 74.2778L96.6944 74.25L95.8889 74.0556L94.9722 74.0278L93 74L91 74L86 74z"/>
<path style="fill:#feab3f; stroke:none;" d="M98 74L98.7778 74.7222L99.25 74.75L100.056 74.9444L102 75L101.222 74.2778L100.75 74.25L99.9444 74.0556L98 74z"/>
<path style="fill:#ffce90; stroke:none;" d="M126 74L127 75L126 74z"/>
<path style="fill:#fec77f; stroke:none;" d="M49 75L50 76L49 75z"/>
<path style="fill:#ffce8f; stroke:none;" d="M78 75L78.7222 75.7222L79.25 75.75L81 76L80.2778 75.2778L79.75 75.25L78 75z"/>
<path style="fill:#ffffff; stroke:none;" d="M68 79L68.0833 80.5L68.2222 81.0556L68.3889 82.0556L68.6389 83L68.8611 84L69.1389 85L69.3611 85.9444L69.75 87.5L70 89L72.0556 88.4167L73.0556 88.2222L74 88.0833L76 87.9167L77 87.7778L79 87.3889L81 87.0833L82 87.0278L83 87L85 87L90 87L97 87L99 87L101 87.0278L102 87.0833L104 87.3889L105 87.6389L107 88.1389L108 88.3889L110 89L111 89.3333L113 90.0833L115 91.0556L116 91.6389L118 92.8056L119 93.3889L120.889 94.6389L121.694 95.3611L122.222 95.75L123 97L121.5 96.1944L120.944 96.0278L119.944 95.6389L119 95.3333L118 95L116 94.3889L115 94.1389L113 93.6389L112 93.3889L110 93.0833L108 92.9167L107 92.7778L105 92.3889L104 92.2222L103 92.0833L101 92L99 92L94 92L91 92L90 92L88 92.0278L87 92.0833L85 92.3889L83 92.7778L82 92.9167L80 93.0833L79 93.2222L77 93.6111L75 93.9444L73 94.2222L71.0556 94.6111L70.5 94.75L69 95L69 96.5L69.1111 98.0556L69.3333 99L70.3333 100.889L72.0278 102.278L74 102.889L75 102.972L77 102.917L79 102.611L80 102.389L82 102.083L84 101.917L85 101.778L87 101.389L88 101.222L89 101.083L91 101L93 101L94 101L97 101L103 101L104 101L106 101.028L107 101.083L109 101.417L110 101.694L112 102.306L113 102.611L114 102.861L116 103.389L118 104L119 104.333L121 105L123 105.583L124 105.778L125.944 105.972L126.5 106L128 106L128 100L128 98L128 97L128 96L128.028 94L128.25 92L128.5 91L129.5 89L131.083 87.0833L133 85.5L135 84.5L135.944 84.25L137.5 84.0278L139 84L138.222 83.2778L137.694 83.2222L136.889 82.9722L135 82.6111L133 82.1389L132 81.8333L131 81.5556L129 80.75L128 80.25L126 79.3889L124 78.6944L123 78.3889L122 78.1389L120 77.6389L119 77.3889L117 77.0833L115 76.9167L113 76.6111L111 76.2222L110 76.0833L108 75.9167L106 75.6111L105 75.3889L103 75.0833L102 75.0278L100 75L98 75L91 75L88 75L86 75L84 75.0278L83 75.0833L81 75.3889L80 75.6111L79 75.7778L78 75.9444L77 76.0556L75 76.4167L73 77.0278L72 77.3889L71.0556 77.8056L70.0556 78.1944L69.5 78.5L68 79z"/>
<path style="fill:#ffd59f; stroke:none;" d="M105.667 75.3333L105.667 75.6667L106.333 75.6667L106.333 75.3333L105.667 75.3333z"/>
<path style="fill:#feb95f; stroke:none;" d="M107 75L107.722 75.7222L108.25 75.75L110 76L109.278 75.2778L108.75 75.25L107 75z"/>
<path style="fill:#feb960; stroke:none;" d="M128 75L129 76L128 75M145 75L146 76L145 75z"/>
<path style="fill:#ffd59f; stroke:none;" d="M158 75L159 76L158 75z"/>
<path style="fill:#fec77f; stroke:none;" d="M51 76L52 77L51 76z"/>
<path style="fill:#feb95f; stroke:none;" d="M74 76L75 77L74 76z"/>
<path style="fill:#ffd59f; stroke:none;" d="M112 76L112.722 76.7222L113.25 76.75L115 77L114.278 76.2778L113.75 76.25L112 76z"/>
<path style="fill:#feb960; stroke:none;" d="M130 76L131 77L130 76M143 76L144 77L143 76z"/>
<path style="fill:#ffd59f; stroke:none;" d="M157 76L158 77L157 76z"/>
<path style="fill:#ffdcaf; stroke:none;" d="M53 77L54 78L53 77z"/>
<path style="fill:#feb95f; stroke:none;" d="M54 77L55 78L54 77M71 77L72 78L71 77z"/>
<path style="fill:#feb24f; stroke:none;" d="M119.667 77.3333L120 77.6667L120.333 77.6667L120.333 77.3333L119.667 77.3333z"/>
<path style="fill:#feb250; stroke:none;" d="M132 77L133 78L132 77z"/>
<path style="fill:#ffd5a0; stroke:none;" d="M140 77L141 78L140 77z"/>
<path style="fill:#ffd59f; stroke:none;" d="M156 77L157 78L156 77z"/>
<path style="fill:#ffce8f; stroke:none;" d="M57 78L58 79L57 78z"/>
<path style="fill:#fec77f; stroke:none;" d="M69 78L70 79L69 78z"/>
<path style="fill:#ffce8f; stroke:none;" d="M123 78L124 79L123 78z"/>
<path style="fill:#fec070; stroke:none;" d="M134 78L135 79L134 78z"/>
<path style="fill:#ffdcb0; stroke:none;" d="M137 78L138 79L137 78z"/>
<path style="fill:#feb960; stroke:none;" d="M138 78L139 79L138 78z"/>
<path style="fill:#feb95f; stroke:none;" d="M59 79L60 80L59 79M126 79L127 80L126 79z"/>
<path style="fill:#fec06f; stroke:none;" d="M153 79L154 80L153 79z"/>
<path style="fill:#feb95f; stroke:none;" d="M128 80L129 81L128 80M151 80L152 81L151 80z"/>
<path style="fill:#ffce8f; stroke:none;" d="M60 81L61 82L60 81z"/>
<path style="fill:#ffd59f; stroke:none;" d="M130 81L131 82L130 81z"/>
<path style="fill:#feb24f; stroke:none;" d="M131 81L132 82L131 81z"/>
<path style="fill:#fec06f; stroke:none;" d="M149 81L150 82L149 81z"/>
<path style="fill:#feab3f; stroke:none;" d="M68.3333 82.6667L68.3333 83.3333L68.6667 83.3333L68.6667 82.6667L68.3333 82.6667M134 82L134.722 82.7222L135.25 82.75L137 83L136.278 82.2778L135.75 82.25L134 82z"/>
<path style="fill:#feb24f; stroke:none;" d="M144.667 82.3333L144.667 82.6667L145.333 82.6667L145 82.3333L144.667 82.3333z"/>
<path style="fill:#ffeacf; stroke:none;" d="M146.667 82.3333L147 82.6667L147.333 82.6667L147 82.3333L146.667 82.3333M139 83L139 84L140 86L140.972 85.2778L141.167 84.75L142 83L139 83z"/>
<path style="fill:#ffe3bf; stroke:none;" d="M61.3333 84.6667L61.3333 85.3333L61.6667 85.3333L61.6667 85L61.3333 84.6667z"/>
<path style="fill:#fec070; stroke:none;" d="M134.667 84.3333L135 84.6667L135.333 84.6667L135.333 84.3333L134.667 84.3333z"/>
<path style="fill:#feab40; stroke:none;" d="M136.667 84.3333L137 84.6667L137.333 84.6667L137.333 84.3333L136.667 84.3333z"/>
<path style="fill:#ffce90; stroke:none;" d="M138.667 84.3333L139 84.6667L139.333 84.6667L139 84.3333L138.667 84.3333z"/>
<path style="fill:#feb960; stroke:none;" d="M132 85L133 86L132 85z"/>
<path style="fill:#ffe3bf; stroke:none;" d="M69 86L69 89L69.6944 88.25L69.6944 87.1944L69.6944 86.75L69 86z"/>
<path style="fill:#feb95f; stroke:none;" d="M138 86L139 87L138 86z"/>
<path style="fill:#ffe3c0; stroke:none;" d="M78.6667 87.3333L78.6667 87.6667L79.3333 87.6667L79 87.3333L78.6667 87.3333z"/>
<path style="fill:#ffc780; stroke:none;" d="M80.6667 87.3333L80.6667 87.6667L81.3333 87.6667L81 87.3333L80.6667 87.3333z"/>
<path style="fill:#feab40; stroke:none;" d="M82 87L82.7778 87.7222L83.25 87.75L84.0556 87.9444L86 88L85.2222 87.2778L84.75 87.25L83.9444 87.0556L82 87M99.6667 87.3333L99.6667 87.6667L100.333 87.6667L100.333 87.3333L99.6667 87.3333z"/>
<path style="fill:#ffc780; stroke:none;" d="M101.667 87.3333L101.667 87.6667L102.333 87.6667L102 87.3333L101.667 87.3333z"/>
<path style="fill:#ffeacf; stroke:none;" d="M103.667 87.3333L103.667 87.6667L104.333 87.6667L104.333 87.3333L103.667 87.3333z"/>
<path style="fill:#feab3f; stroke:none;" d="M62.3333 88.6667L62.3333 89.3333L62.6667 89.3333L62.6667 89L62.3333 88.6667z"/>
<path style="fill:#ffd5a0; stroke:none;" d="M71 88L71.7222 88.7222L72.25 88.75L74 89L73.2778 88.2778L72.75 88.25L71 88z"/>
<path style="fill:#fea430; stroke:none;" d="M74.6667 88.3333L75 88.6667L75.3333 88.6667L75.3333 88.3333L74.6667 88.3333z"/>
<path style="fill:#ffdcb0; stroke:none;" d="M107.667 88.3333L107.667 88.6667L108.333 88.6667L108.333 88.3333L107.667 88.3333z"/>
<path style="fill:#feb95f; stroke:none;" d="M129 88L130 89L129 88z"/>
<path style="fill:#ffce90; stroke:none;" d="M111 89L112 90L111 89z"/>
<path style="fill:#feb24f; stroke:none;" d="M136 89L137 90L136 89z"/>
<path style="fill:#fec77f; stroke:none;" d="M62 90L62 94L62.7222 93.2222L62.7222 92.7222L62.8889 92L62.7222 90.7778L62 90z"/>
<path style="fill:#feb250; stroke:none;" d="M113 90L114 91L113 90z"/>
<path style="fill:#ffd5a0; stroke:none;" d="M114 90L115 91L114 90z"/>
<path style="fill:#fec77f; stroke:none;" d="M128.333 90.6667L128.333 91L128.667 91.3333L128.667 91L128.333 90.6667z"/>
<path style="fill:#ffdcaf; stroke:none;" d="M136 90L137 91L136 90z"/>
<path style="fill:#feab3f; stroke:none;" d="M87 91L87.7778 91.7222L88.25 91.75L89.0556 91.9444L91 92L90.2222 91.2778L89.75 91.25L88.9444 91.0556L87 91z"/>
<path style="fill:#fec77f; stroke:none;" d="M91 91L91.7778 91.7222L92.3056 91.75L93.1111 91.9444L94.0278 91.9722L95.9444 92L96.9444 92L99 92L98.2222 91.2778L97.6944 91.25L96.8889 91.0556L95.9722 91.0278L94.0556 91L93.0556 91L91 91z"/>
<path style="fill:#feab3f; stroke:none;" d="M99 91L99.7778 91.7222L100.25 91.75L101.056 91.9444L103 92L102.222 91.2778L101.75 91.25L100.944 91.0556L99 91z"/>
<path style="fill:#feb24f; stroke:none;" d="M79 92L79.7222 92.7222L80.25 92.75L82 93L81.2778 92.2778L80.75 92.25L79 92z"/>
<path style="fill:#ffe3bf; stroke:none;" d="M82 92L82.7222 92.7222L83.25 92.75L85 93L84.2778 92.2778L83.75 92.25L82 92M105.667 92.3333L105.667 92.6667L106.333 92.6667L106.333 92.3333L105.667 92.3333z"/>
<path style="fill:#fec06f; stroke:none;" d="M107 92L107.722 92.7222L108.25 92.75L110 93L109.278 92.2778L108.75 92.25L107 92z"/>
<path style="fill:#feab3f; stroke:none;" d="M128 92L128 105L128.722 104.222L128.75 103.694L128.944 102.889L128.972 101.972L129 101L129 99L129 97L129 96L128.972 95.0278L128.944 94.1111L128.75 93.3056L128.722 92.7778L128 92z"/>
<path style="fill:#fec77f; stroke:none;" d="M135.333 92.6667L135.333 93L135.667 93.3333L135.667 93L135.333 92.6667z"/>
<path style="fill:#ffdcaf; stroke:none;" d="M75 93L75.7222 93.7222L76.25 93.75L78 94L77.2778 93.2778L76.75 93.25L75 93z"/>
<path style="fill:#feb95f; stroke:none;" d="M112.667 93.3333L112.667 93.6667L113.333 93.6667L113.333 93.3333L112.667 93.3333z"/>
<path style="fill:#ffc780; stroke:none;" d="M119 93L120 94L119 93z"/>
<path style="fill:#ffe3bf; stroke:none;" d="M62 94L62 102L62.7222 101.222L62.75 100.694L62.9444 99.8889L63 98L62.9722 97.0278L62.9444 96.1111L62.75 95.3056L62.7222 94.7778L62 94z"/>
<path style="fill:#ffce8f; stroke:none;" d="M70.6667 94.3333L70.6667 94.6667L71.3333 94.6667L71.3333 94.3333L70.6667 94.3333z"/>
<path style="fill:#ffdcaf; stroke:none;" d="M116 94L117 95L116 94z"/>
<path style="fill:#feb95f; stroke:none;" d="M117 94L118 95L117 94M120 94L120 96L122 96L121 94L120 94z"/>
<path style="fill:#ffdcaf; stroke:none;" d="M119 95L120 96L119 95z"/>
<path style="fill:#ffe3bf; stroke:none;" d="M122.333 95.6667L122.333 96.3333L122.667 96.3333L122.667 95.6667L122.333 95.6667z"/>
<path style="fill:#feab3f; stroke:none;" d="M134 98L134 102L134.722 101.222L134.722 100.722L134.889 100L134.722 98.7778L134 98z"/>
<path style="fill:#feb95f; stroke:none;" d="M69 100L70 101L69 100z"/>
<path style="fill:#ffdcaf; stroke:none;" d="M70 101L71 102L70 101z"/>
<path style="fill:#ffd5a0; stroke:none;" d="M86.6667 101.333L86.6667 101.667L87.3333 101.667L87.3333 101.333L86.6667 101.333z"/>
<path style="fill:#fec070; stroke:none;" d="M88.6667 101.333L89 101.667L89.3333 101.667L89 101.333L88.6667 101.333z"/>
<path style="fill:#feab40; stroke:none;" d="M90.6667 101.333L91 101.667L91.3333 101.667L91.3333 101.333L90.6667 101.333M104 101L104.722 101.722L105.25 101.75L107 102L106.278 101.278L105.75 101.25L104 101z"/>
<path style="fill:#ffdcb0; stroke:none;" d="M107 101L107.722 101.722L108.25 101.75L110 102L109.278 101.278L108.75 101.25L107 101z"/>
<path style="fill:#fec77f; stroke:none;" d="M62 102L62 115L62.7222 114.222L62.75 113.694L62.9444 112.889L62.9722 111.972L63 111L63 110L63 108L63 106L62.9722 105.028L62.9444 104.111L62.75 103.306L62.7222 102.778L62 102z"/>
<path style="fill:#feb960; stroke:none;" d="M71 102L72 103L71 102z"/>
<path style="fill:#ffdcb0; stroke:none;" d="M79.6667 102.333L79.6667 102.667L80.3333 102.667L80.3333 102.333L79.6667 102.333z"/>
<path style="fill:#feb960; stroke:none;" d="M81 102L81.7222 102.722L82.25 102.75L84 103L83.2778 102.278L82.75 102.25L81 102z"/>
<path style="fill:#fec070; stroke:none;" d="M111.667 102.333L111.667 102.667L112.333 102.667L112.333 102.333L111.667 102.333z"/>
<path style="fill:#fec77f; stroke:none;" d="M134 102L134 105L134.694 104.25L134.694 103.194L134.694 102.75L134 102z"/>
<path style="fill:#fec070; stroke:none;" d="M116 103L117 104L116 103z"/>
<path style="fill:#feb960; stroke:none;" d="M119 104L120 105L119 104z"/>
<path style="fill:#ffce90; stroke:none;" d="M122 105L123 106L122 105z"/>
<path style="fill:#feab3f; stroke:none;" d="M134 105L134 111L134.722 110.222L134.75 109.694L134.944 108.889L134.944 107.111L134.75 106.306L134.722 105.778L134 105z"/>
<path style="fill:#fec070; stroke:none;" d="M124 106L124.722 106.722L125.25 106.75L127 107L126.278 106.278L125.75 106.25L124 106z"/>
<path style="fill:#feab3f; stroke:none;" d="M89 107L89.7778 107.722L90.3056 107.75L91.1111 107.944L92.0278 107.972L92.9444 108L93.9444 108L96 108L95.2222 107.278L94.6944 107.25L93.8889 107.056L92.9722 107.028L92.0556 107L91.0556 107L89 107z"/>
<path style="fill:#fec77f; stroke:none;" d="M96.6667 107.333L97 107.667L97.3333 107.667L97.3333 107.333L96.6667 107.333z"/>
<path style="fill:#feab3f; stroke:none;" d="M98 107L98.7778 107.722L99.3056 107.75L100.111 107.944L101.028 107.972L101.944 108L102.944 108L105 108L104.222 107.278L103.694 107.25L102.889 107.056L101.972 107.028L101.056 107L100.056 107L98 107z"/>
<path style="fill:#feb95f; stroke:none;" d="M79.6667 108.333L79.6667 108.667L80.3333 108.667L80.3333 108.333L79.6667 108.333z"/>
<path style="fill:#ffce8f; stroke:none;" d="M81.6667 108.333L82 108.667L82.3333 108.667L82.3333 108.333L81.6667 108.333z"/>
<path style="fill:#ffe3bf; stroke:none;" d="M83 108L83.7222 108.722L84.25 108.75L86 109L85.2778 108.278L84.75 108.25L83 108M108 108L108.722 108.722L109.25 108.75L111 109L110.278 108.278L109.75 108.25L108 108z"/>
<path style="fill:#feb95f; stroke:none;" d="M111 108L111.722 108.722L112.25 108.75L114 109L113.278 108.278L112.75 108.25L111 108z"/>
<path style="fill:#fec06f; stroke:none;" d="M73 109L73.7222 109.722L74.25 109.75L76 110L75.2778 109.278L74.75 109.25L73 109z"/>
<path style="fill:#fec77f; stroke:none;" d="M116.667 109.333L116.667 109.667L117.333 109.667L117.333 109.333L116.667 109.333z"/>
<path style="fill:#feb95f; stroke:none;" d="M69 110L70 111L69 110z"/>
<path style="fill:#fea42f; stroke:none;" d="M121.667 110.333L122 110.667L122.333 110.667L122.333 110.333L121.667 110.333z"/>
<path style="fill:#feb24f; stroke:none;" d="M67 111L68 112L67 111z"/>
<path style="fill:#fec06f; stroke:none;" d="M124 111L125 112L124 111z"/>
<path style="fill:#ffdcaf; stroke:none;" d="M66 112L67 113L66 112z"/>
<path style="fill:#ffce8f; stroke:none;" d="M130 114L131 115L130 114z"/>
<path style="fill:#feb24f; stroke:none;" d="M133 116L134 117L133 116z"/>
<path style="fill:#fec06f; stroke:none;" d="M134 117L135 118L134 117z"/>
<path style="fill:#c0c0c0; stroke:none;" d="M92.6667 122.333L93 122.667L93.3333 122.667L93.3333 122.333L92.6667 122.333M104.667 122.333L104.667 122.667L105.333 122.667L105.333 122.333L104.667 122.333z"/>
<path style="fill:#bfbfbf; stroke:none;" d="M88 123L89 124L88 123z"/>
<path style="fill:#606060; stroke:none;" d="M89 123L90 124L89 123z"/>
<path style="fill:#000000; stroke:none;" d="M68 130L68.0833 132.056L68.4722 134L69.2778 135.972L70.4722 137.75L71.25 138.528L73.0278 139.722L74 140.139L75 140.556L76 140.833L78 141.361L79 141.611L81 141.917L83 142L84 142L86 141.917L88 141.611L89 141.361L91 140.833L92 140.528L94 139.583L94.9722 138.972L96.6667 137.639L97.6389 136.417L98 135L100 135L100.361 136.472L101.333 137.806L102.111 138.528L104 139.722L106 140.556L107 140.833L109 141.361L110 141.611L112 141.917L114 142L115 142L117 141.917L119 141.611L120 141.361L122 140.833L123 140.556L124.917 139.722L125.778 139.139L126.583 138.528L127.972 136.917L128.583 135.972L129.083 135L129.5 134L129.917 132.056L129.972 131.056L130 129L128.917 129.75L128.528 130.222L126.917 131.528L125 132.472L124 132.667L122 132.472L121 132.083L120 131.583L118 130.306L117 129.583L115 127.944L114 127.056L112 125.472L110 124.278L109 123.861L108 123.472L106 123.111L104 123.25L103.028 123.5L101.333 124.444L100.361 125.583L100 127L98 127L97.6389 125.583L96.6667 124.444L94.9722 123.5L94 123.25L92 123.111L90 123.472L89 123.861L88 124.278L86 125.472L84 127.056L83 127.944L81 129.583L80 130.306L78 131.583L77 132.083L76 132.472L74 132.667L73 132.472L72 132.083L70.0556 131.056L69.5 130.694L68 130z"/>
<path style="fill:#505050; stroke:none;" d="M95 123L96 124L95 123z"/>
<path style="fill:#bfbfbf; stroke:none;" d="M101 123L102 124L101 123z"/>
<path style="fill:#505050; stroke:none;" d="M102 123L103 124L102 123z"/>
<path style="fill:#606060; stroke:none;" d="M108 123L109 124L108 123z"/>
<path style="fill:#cfcfcf; stroke:none;" d="M86 124L87 125L86 124z"/>
<path style="fill:#404040; stroke:none;" d="M87 124L88 125L87 124z"/>
<path style="fill:#9f9f9f; stroke:none;" d="M97 124L98 125L97 124M100 124L101 125L100 124z"/>
<path style="fill:#404040; stroke:none;" d="M110 124L111 125L110 124z"/>
<path style="fill:#909090; stroke:none;" d="M85 125L86 126L85 125z"/>
<path style="fill:#afafaf; stroke:none;" d="M98.6667 125.333L98.6667 125.667L99.3333 125.667L99.3333 125.333L98.6667 125.333M112 125L113 126L112 125z"/>
<path style="fill:#606060; stroke:none;" d="M84 126L85 127L84 126z"/>
<path style="fill:#202020; stroke:none;" d="M98.6667 126.333L98.6667 126.667L99.3333 126.667L99.3333 126.333L98.6667 126.333z"/>
<path style="fill:#808080; stroke:none;" d="M113 126L114 127L113 126z"/>
<path style="fill:#9f9f9f; stroke:none;" d="M12 127L13 128L12 127z"/>
<path style="fill:#7f7f7f; stroke:none;" d="M13 127L13 129L14 129L15 127L13 127z"/>
<path style="fill:#cfcfcf; stroke:none;" d="M15 127L16 128L15 127z"/>
<path style="fill:#bfbfbf; stroke:none;" d="M67 127L68 128L67 127z"/>
<path style="fill:#404040; stroke:none;" d="M83 127L84 128L83 127z"/>
<path style="fill:#606060; stroke:none;" d="M114 127L115 128L114 127z"/>
<path style="fill:#cfcfcf; stroke:none;" d="M129 127L129 128L131 129L131 127L129 127z"/>
<path style="fill:#000000; stroke:none;" d="M14 128L14.7778 129L15.3056 129.222L16.1111 129.806L17.0278 130.222L18 130.75L20 131.611L22 132.389L24 133.25L25 133.75L27 134.611L29 135.389L31 136.194L32 136.611L34 137.389L36 138.25L37 138.75L39 139.611L41 140.389L42.9722 141.278L44.6667 142.417L45.6389 143.583L46 145L44.5 144.917L43.9444 144.778L42.9444 144.583L42 144.306L40 143.667L38 142.972L37 142.611L36 142.194L34 141.389L32 140.611L30 139.806L29 139.389L27 138.611L26 138.194L24 137.389L22 136.611L20 135.806L19 135.389L17 134.667L16 134.333L14.0556 133.694L13.0556 133.417L12.5 133.25L11 133L11.7778 134.222L12.3056 134.583L13.1111 135.194L15 136.222L16 136.75L18 137.611L20 138.389L22 139.194L23 139.611L25 140.389L27 141.194L28 141.611L30 142.389L31 142.806L33 143.611L35 144.389L37 145.25L38 145.778L39 146.222L39.9444 146.75L40.9444 147.167L41.5 147.5L43 148L43 150L42 151L40.5 150.556L39.9444 150.333L38 149.611L37 149.194L35 148.389L33 147.611L31 146.75L30 146.25L28 145.389L26 144.611L24 143.806L23 143.389L21 142.611L19 141.806L18 141.389L16 140.611L14 139.75L13 139.25L11.0556 138.472L9.5 138.083L8 138L8.77778 139.056L9.30556 139.389L11.0278 140.611L13 141.75L15 142.778L16 143.222L18 144.222L19 144.778L20 145.222L21 145.778L23 146.75L24 147.167L25 147.611L27 148.389L29 149.25L30 149.75L32 150.611L34 151.389L35 151.806L36 152.194L37.9722 153.083L39.6667 154.25L40.6389 155.528L41 157L39.5 156.5L38.9444 156.194L37.9444 155.806L37 155.389L35 154.611L33 153.806L32 153.389L30 152.611L28 151.806L27 151.389L25 150.611L24 150.194L22 149.389L20 148.611L19 148.194L17 147.389L15 146.611L13 145.806L12 145.389L10.0556 144.694L9.05556 144.417L8.5 144.25L7 144L7.77778 145.222L8.30556 145.583L9.11111 146.194L11 147.222L12 147.778L13 148.222L14 148.778L15 149.222L16 149.778L18 150.778L19 151.222L21 152.222L22 152.75L24 153.611L26 154.389L27 154.833L28 155.25L29 155.778L31 156.778L32 157.222L33 157.778L35 158.778L36 159.222L37 159.778L39 160.75L41 161.611L43 162.333L44 162.667L46 163.389L48 164.167L49 164.556L51 165.139L52 165.361L53 165.611L55 165.917L56 165.972L58 166L59 166L61 165.917L63 165.583L64 165.306L65 165L67 164.333L69 163.722L70 163.5L72 163.5L74 164L76 164.611L77 164.861L78 165.139L80 165.694L82 166.389L83.9722 167.278L85.6944 168.417L86.2222 168.778L87 170L84.9444 170.083L83 170.389L82 170.611L80 170.917L79 170.972L77 171.083L76 171.222L74 171.611L72 171.917L71 171.972L69 172L68 172L63 172L61 172L60 172.028L59 172.083L57 172.389L56 172.611L54 172.917L53 172.972L51 173.083L49 173.472L47.0556 174.222L46.0556 174.778L45.5 175L44 176L44 179.056L44 180L44.0278 181L44.1111 182L44.3333 183L45.3333 184.917L46.1111 185.75L48 187.056L50 187.722L51 187.833L52 187.75L54 187.361L56 186.861L57 186.611L59 186L60 185.667L62 185L65 184L66 183.667L68 182.972L69 182.611L70 182.167L71 181.75L72 181.25L74 180.389L75 180.028L77 179.333L79 178.667L80 178.333L81 177.972L82 177.611L84 176.806L85 176.389L86 176.028L87 175.667L89 175L91 174.389L93 173.861L94 173.611L96 173.083L97 172.917L98 172.806L99 172.861L100 172.944L102 173.389L103 173.694L105 174.333L107 175L108 175.333L110 176.028L111 176.389L112 176.806L114 177.611L116 178.389L118 179.25L119 179.75L121 180.611L123 181.389L125 182.25L126 182.75L128 183.611L130 184.389L132 185.25L133 185.75L135 186.611L137 187.389L139 188.194L140 188.611L142 189.333L144 190L146 190.583L147 190.806L149 191.167L151 191.389L152 191.361L153 191.194L153.972 190.861L154.917 190.361L156.5 188.889L157.5 187L157.917 185L157.889 183L157.278 181L156.667 180.028L155.889 179.111L154 177.694L153 177.25L151 176.639L150 176.389L148 176.083L147 176.028L145 175.917L143 175.611L141 175.222L140 175.083L138 174.917L137 174.778L135 174.389L133 174.056L132 173.944L130 173.611L128 173.222L127 173.083L125 172.917L123 172.611L121 172.222L119 171.944L117 171.611L116 171.389L115 171.194L113 170.806L112 170.611L111 170.389L110 170.194L108 169.806L107 169.611L105 169.194L103 168.806L102 168.611L100 168.139L99 167.861L98 167.639L96 167.139L95 166.861L94 166.639L93 166.361L92 166.139L90 165.611L89 165.306L88 165L87 164.667L85 164L83 163.333L82 162.972L81 162.611L79 161.75L78 161.222L77 160.75L75 159.528L73.0278 157.917L72.0833 156.972L70.4722 155L69.25 153L68.75 152L67.5278 150.028L66.75 149.083L64.9722 147.472L64 146.861L63 146.278L61 145.389L59 144.611L57 143.75L56 143.222L55 142.778L54 142.25L53 141.833L52 141.389L50 140.611L48 139.806L47 139.389L45 138.611L44 138.194L42 137.389L40 136.611L38 135.806L37 135.389L35 134.667L34 134.333L33 133.972L32 133.611L30 132.806L29 132.389L27 131.667L25 131L22 130L20 129.333L19 129L17.0556 128.417L16.0556 128.222L15.5 128.083L14 128z"/>
<path style="fill:#606060; stroke:none;" d="M17 128L18 129L17 128z"/>
<path style="fill:#b0b0b0; stroke:none;" d="M18 128L19 129L18 128z"/>
<path style="fill:#7f7f7f; stroke:none;" d="M67 128L67 132L67.8056 131.222L67.9722 130.75L68.5556 129.472L69 128L67 128z"/>
<path style="fill:#303030; stroke:none;" d="M82 128L83 129L82 128z"/>
<path style="fill:#404040; stroke:none;" d="M115 128L116 129L115 128z"/>
<path style="fill:#8f8f8f; stroke:none;" d="M129 128L130 129L129 128z"/>
<path style="fill:#5f5f5f; stroke:none;" d="M15 129L16 130L15 129z"/>
<path style="fill:#505050; stroke:none;" d="M20 129L21 130L20 129z"/>
<path style="fill:#a0a0a0; stroke:none;" d="M21 129L22 130L21 129z"/>
<path style="fill:#404040; stroke:none;" d="M68 129L69 130L68 129z"/>
<path style="fill:#cfcfcf; stroke:none;" d="M80 129L81 130L80 129z"/>
<path style="fill:#303030; stroke:none;" d="M81 129L82 130L81 129M116 129L117 130L116 129z"/>
<path style="fill:#7f7f7f; stroke:none;" d="M130.333 129.667L130.333 130L130.667 130.333L130.667 129.667L130.333 129.667z"/>
<path style="fill:#5f5f5f; stroke:none;" d="M17 130L18 131L17 130z"/>
<path style="fill:#505050; stroke:none;" d="M23 130L24 131L23 130z"/>
<path style="fill:#b0b0b0; stroke:none;" d="M24 130L25 131L24 130z"/>
<path style="fill:#606060; stroke:none;" d="M69 130L70 131L69 130z"/>
<path style="fill:#afafaf; stroke:none;" d="M79 130L80 131L79 130z"/>
<path style="fill:#bfbfbf; stroke:none;" d="M118 130L119 131L118 130z"/>
<path style="fill:#606060; stroke:none;" d="M128 130L129 131L128 130z"/>
<path style="fill:#7f7f7f; stroke:none;" d="M19 131L20 132L19 131z"/>
<path style="fill:#606060; stroke:none;" d="M26 131L27 132L26 131z"/>
<path style="fill:#bfbfbf; stroke:none;" d="M27 131L28 132L27 131z"/>
<path style="fill:#606060; stroke:none;" d="M70 131L71 132L70 131M78 131L79 132L78 131M119 131L120 132L119 131z"/>
<path style="fill:#404040; stroke:none;" d="M127 131L128 132L127 131z"/>
<path style="fill:#bfbfbf; stroke:none;" d="M130.333 131.667L130.333 132L130.667 132.333L130.667 131.667L130.333 131.667z"/>
<path style="fill:#c0c0c0; stroke:none;" d="M10.6667 132.333L11 132.667L11.3333 132.667L11.3333 132.333L10.6667 132.333z"/>
<path style="fill:#afafaf; stroke:none;" d="M21 132L22 133L21 132z"/>
<path style="fill:#4f4f4f; stroke:none;" d="M22 132L23 133L22 132z"/>
<path style="fill:#707070; stroke:none;" d="M29 132L30 133L29 132z"/>
<path style="fill:#afafaf; stroke:none;" d="M67 132L68 133L67 132z"/>
<path style="fill:#505050; stroke:none;" d="M72 132L73 133L72 132z"/>
<path style="fill:#808080; stroke:none;" d="M73 132L73.7222 132.722L74.25 132.75L76 133L75.2778 132.278L74.75 132.25L73 132z"/>
<path style="fill:#404040; stroke:none;" d="M76 132L77 133L76 132M121 132L122 133L121 132z"/>
<path style="fill:#808080; stroke:none;" d="M122 132L122.722 132.722L123.25 132.75L125 133L124.278 132.278L123.75 132.25L122 132z"/>
<path style="fill:#404040; stroke:none;" d="M125 132L126 133L125 132z"/>
<path style="fill:#6f6f6f; stroke:none;" d="M10 133L11 134L10 133z"/>
<path style="fill:#505050; stroke:none;" d="M13 133L14 134L13 133z"/>
<path style="fill:#909090; stroke:none;" d="M14 133L15 134L14 133z"/>
<path style="fill:#6f6f6f; stroke:none;" d="M24 133L25 134L24 133z"/>
<path style="fill:#303030; stroke:none;" d="M31 133L32 134L31 133z"/>
<path style="fill:#a0a0a0; stroke:none;" d="M32 133L33 134L32 133z"/>
<path style="fill:#c3c3c3; stroke:none;" d="M162 133L163 134L162 133z"/>
<path style="fill:#787878; stroke:none;" d="M163.667 133.333L164 133.667L164.333 133.667L164 133.333L163.667 133.333z"/>
<path style="fill:#474747; stroke:none;" d="M165.667 133.333L166 133.667L166.333 133.667L166 133.333L165.667 133.333z"/>
<path style="fill:#1a1a1a; stroke:none;" d="M167.667 133.333L168 133.667L168.333 133.667L168 133.333L167.667 133.333z"/>
<path style="fill:#000000; stroke:none;" d="M103 167L103.778 167.722L104.306 167.75L105.111 167.944L107 168L108 168L110 168L112 167.917L114 167.611L115 167.361L116 167.139L118 166.611L119 166.306L121 165.694L122 165.389L123 165.139L125 164.639L126 164.389L128 164L129 163.833L131 163.611L133 163.778L135 164.417L137 165.417L138 166.028L140 167.306L141 167.917L143 168.917L145 169.583L146 169.778L148 169.972L149 170L151 170L153 170L154 169.972L155 169.917L157 169.611L159 169.139L160 168.861L161 168.611L162 168.306L164 167.667L166 166.972L167 166.611L168 166.167L169 165.722L170 165.167L171 164.611L173 163.389L175 162.167L176 161.528L177 160.778L179 159.194L180.972 157.611L181.917 156.778L182.778 155.917L183.611 154.972L184.361 154L185.833 152L186.528 151L187.583 149L188.306 147L188.778 145L188.889 143L188.75 142L188.5 141L187.5 139.028L186.75 138.083L184.972 136.5L183 135.417L181 134.694L180 134.417L178 134.083L176 134L174 133.917L172 133.639L171 133.472L170 133.444L169 133.472L167 133.778L166 133.917L165 133.972L163 134.028L162 134.083L160 134.389L159 134.611L157 135L155 135.389L153 135.861L152 136.139L151 136.389L149 137.028L148 137.389L146 138.278L144 139.389L143 140.028L141 141.417L139.083 143.083L138.25 144.028L137.472 145L136.25 147L135.778 148L134.778 150L134.25 151L133.833 152L133.361 153L132.361 155L130.889 156.917L129 158.5L128 159.083L127 159.583L125 160.333L123 161L122 161.306L121 161.611L120 161.861L118 162.361L117 162.639L116 162.861L114 163.389L113 163.694L111 164.306L110 164.611L109 164.861L107 165.389L105.056 166.028L104.5 166.194L103 167z"/>
<path style="fill:#282828; stroke:none;" d="M171 133L171.722 133.722L172.25 133.75L174 134L173.278 133.278L172.75 133.25L171 133z"/>
<path style="fill:#5e5e5e; stroke:none;" d="M174 133L174.722 133.722L175.25 133.75L177 134L176.278 133.278L175.75 133.25L174 133z"/>
<path style="fill:#9d9d9d; stroke:none;" d="M177 133L178 134L177 133z"/>
<path style="fill:#bfbfbf; stroke:none;" d="M11 134L12 135L11 134z"/>
<path style="fill:#505050; stroke:none;" d="M16 134L17 135L16 134z"/>
<path style="fill:#a0a0a0; stroke:none;" d="M17 134L18 135L17 134z"/>
<path style="fill:#9f9f9f; stroke:none;" d="M26 134L27 135L26 134z"/>
<path style="fill:#606060; stroke:none;" d="M34 134L35 135L34 134z"/>
<path style="fill:#bfbfbf; stroke:none;" d="M35 134L36 135L35 134z"/>
<path style="fill:#2f2f2f; stroke:none;" d="M68 134L69 135L68 134z"/>
<path style="fill:#4f4f4f; stroke:none;" d="M129 134L130 135L129 134z"/>
<path style="fill:#cccccc; stroke:none;" d="M156 134L157 135L156 134z"/>
<path style="fill:#868686; stroke:none;" d="M157 134L158 135L157 134z"/>
<path style="fill:#262626; stroke:none;" d="M158.667 134.333L159 134.667L159.333 134.667L159 134.333L158.667 134.333z"/>
<path style="fill:#636363; stroke:none;" d="M180 134L181 135L180 134z"/>
<path style="fill:#aeaeae; stroke:none;" d="M181 134L182 135L181 134z"/>
<path style="fill:#7f7f7f; stroke:none;" d="M13 135L14 136L13 135z"/>
<path style="fill:#606060; stroke:none;" d="M19 135L20 136L19 135z"/>
<path style="fill:#cfcfcf; stroke:none;" d="M20 135L21 136L20 135z"/>
<path style="fill:#bfbfbf; stroke:none;" d="M28 135L29 136L28 135z"/>
<path style="fill:#4f4f4f; stroke:none;" d="M29 135L30 136L29 135z"/>
<path style="fill:#808080; stroke:none;" d="M37 135L38 136L37 135z"/>
<path style="fill:#9f9f9f; stroke:none;" d="M68 135L69 136L68 135z"/>
<path style="fill:#2f2f2f; stroke:none;" d="M98.6667 135.333L98.6667 135.667L99.3333 135.667L99 135.333L98.6667 135.333z"/>
<path style="fill:#bfbfbf; stroke:none;" d="M129 135L130 136L129 135z"/>
<path style="fill:#b6b6b6; stroke:none;" d="M152 135L153 136L152 135z"/>
<path style="fill:#737373; stroke:none;" d="M153 135L154 136L153 135z"/>
<path style="fill:#3f3f3f; stroke:none;" d="M154 135L155 136L154 135z"/>
<path style="fill:#6f6f6f; stroke:none;" d="M183 135L184 136L183 135z"/>
<path style="fill:#7f7f7f; stroke:none;" d="M15 136L16 137L15 136z"/>
<path style="fill:#303030; stroke:none;" d="M21 136L22 137L21 136z"/>
<path style="fill:#a0a0a0; stroke:none;" d="M22 136L23 137L22 136z"/>
<path style="fill:#6f6f6f; stroke:none;" d="M31 136L32 137L31 136z"/>
<path style="fill:#505050; stroke:none;" d="M39 136L40 137L39 136z"/>
<path style="fill:#b0b0b0; stroke:none;" d="M40 136L41 137L40 136z"/>
<path style="fill:#3f3f3f; stroke:none;" d="M69 136L70 137L69 136z"/>
<path style="fill:#cfcfcf; stroke:none;" d="M99 136L100 137L99 136z"/>
<path style="fill:#4f4f4f; stroke:none;" d="M128 136L129 137L128 136z"/>
<path style="fill:#a2a2a2; stroke:none;" d="M149 136L150 137L149 136z"/>
<path style="fill:#515151; stroke:none;" d="M150 136L151 137L150 136z"/>
<path style="fill:#969696; stroke:none;" d="M185 136L186 137L185 136z"/>
<path style="fill:#808080; stroke:none;" d="M8 137L9 138L8 137z"/>
<path style="fill:#b0b0b0; stroke:none;" d="M9 137L10 138L9 137z"/>
<path style="fill:#9f9f9f; stroke:none;" d="M17 137L18 138L17 137z"/>
<path style="fill:#707070; stroke:none;" d="M24 137L25 138L24 137z"/>
<path style="fill:#9f9f9f; stroke:none;" d="M33 137L34 138L33 137z"/>
<path style="fill:#2f2f2f; stroke:none;" d="M34 137L35 138L34 137z"/>
<path style="fill:#808080; stroke:none;" d="M42 137L43 138L42 137z"/>
<path style="fill:#cfcfcf; stroke:none;" d="M69 137L70 138L69 137M97 137L98 138L97 137M100 137L101 138L100 137z"/>
<path style="fill:#2f2f2f; stroke:none;" d="M127 137L128 138L127 137z"/>
<path style="fill:#626262; stroke:none;" d="M147 137L148 138L147 137z"/>
<path style="fill:#6d6d6d; stroke:none;" d="M186 137L187 138L186 137z"/>
<path style="fill:#8f8f8f; stroke:none;" d="M7 138L8 139L7 138z"/>
<path style="fill:#808080; stroke:none;" d="M11 138L12 139L11 138z"/>
<path style="fill:#bfbfbf; stroke:none;" d="M19 138L20 139L19 138z"/>
<path style="fill:#4f4f4f; stroke:none;" d="M20 138L21 139L20 138z"/>
<path style="fill:#404040; stroke:none;" d="M26 138L27 139L26 138z"/>
<path style="fill:#a0a0a0; stroke:none;" d="M27 138L28 139L27 138z"/>
<path style="fill:#bfbfbf; stroke:none;" d="M35 138L36 139L35 138z"/>
<path style="fill:#5f5f5f; stroke:none;" d="M36 138L37 139L36 138z"/>
<path style="fill:#505050; stroke:none;" d="M44 138L45 139L44 138z"/>
<path style="fill:#b0b0b0; stroke:none;" d="M45 138L46 139L45 138z"/>
<path style="fill:#cfcfcf; stroke:none;" d="M70 138L71 139L70 138z"/>
<path style="fill:#2f2f2f; stroke:none;" d="M95 138L96 139L95 138z"/>
<path style="fill:#cfcfcf; stroke:none;" d="M101 138L102 139L101 138z"/>
<path style="fill:#5c5c5c; stroke:none;" d="M145 138L146 139L145 138z"/>
<path style="fill:#919191; stroke:none;" d="M187 138L188 139L187 138z"/>
<path style="fill:#3f3f3f; stroke:none;" d="M9 139L10 140L9 139z"/>
<path style="fill:#606060; stroke:none;" d="M13 139L14 140L13 139z"/>
<path style="fill:#bfbfbf; stroke:none;" d="M14 139L15 140L14 139z"/>
<path style="fill:#7f7f7f; stroke:none;" d="M22 139L23 140L22 139z"/>
<path style="fill:#808080; stroke:none;" d="M29 139L30 140L29 139z"/>
<path style="fill:#7f7f7f; stroke:none;" d="M38 139L39 140L38 139z"/>
<path style="fill:#808080; stroke:none;" d="M47 139L48 140L47 139z"/>
<path style="fill:#3f3f3f; stroke:none;" d="M72 139L73 140L72 139z"/>
<path style="fill:#7f7f7f; stroke:none;" d="M94 139L95 140L94 139M103 139L104 140L103 139z"/>
<path style="fill:#6f6f6f; stroke:none;" d="M125 139L126 140L125 139z"/>
<path style="fill:#909090; stroke:none;" d="M143 139L144 140L143 139z"/>
<path style="fill:#cbcbcb; stroke:none;" d="M188 139L189 140L188 139z"/>
<path style="fill:#afafaf; stroke:none;" d="M10 140L11 141L10 140z"/>
<path style="fill:#303030; stroke:none;" d="M15 140L16 141L15 140z"/>
<path style="fill:#a0a0a0; stroke:none;" d="M16 140L17 141L16 140z"/>
<path style="fill:#afafaf; stroke:none;" d="M24 140L25 141L24 140z"/>
<path style="fill:#4f4f4f; stroke:none;" d="M25 140L26 141L25 140z"/>
<path style="fill:#505050; stroke:none;" d="M31 140L32 141L31 140z"/>
<path style="fill:#b0b0b0; stroke:none;" d="M32 140L33 141L32 140z"/>
<path style="fill:#9f9f9f; stroke:none;" d="M40 140L41 141L40 140z"/>
<path style="fill:#2f2f2f; stroke:none;" d="M41 140L42 141L41 140z"/>
<path style="fill:#606060; stroke:none;" d="M49 140L50 141L49 140z"/>
<path style="fill:#bfbfbf; stroke:none;" d="M50 140L51 141L50 140M73 140L74 141L73 140z"/>
<path style="fill:#4f4f4f; stroke:none;" d="M74 140L75 141L74 140z"/>
<path style="fill:#8f8f8f; stroke:none;" d="M92 140L93 141L92 140z"/>
<path style="fill:#7f7f7f; stroke:none;" d="M105 140L106 141L105 140z"/>
<path style="fill:#5f5f5f; stroke:none;" d="M123 140L124 141L123 140z"/>
<path style="fill:#363636; stroke:none;" d="M142 140L143 141L142 140z"/>
<path style="fill:#505050; stroke:none;" d="M188 140L189 141L188 140z"/>
<path style="fill:#9f9f9f; stroke:none;" d="M12 141L13 142L12 141z"/>
<path style="fill:#808080; stroke:none;" d="M18 141L19 142L18 141z"/>
<path style="fill:#7f7f7f; stroke:none;" d="M27 141L28 142L27 141z"/>
<path style="fill:#808080; stroke:none;" d="M34 141L35 142L34 141z"/>
<path style="fill:#cfcfcf; stroke:none;" d="M42 141L43 142L42 141z"/>
<path style="fill:#6f6f6f; stroke:none;" d="M43 141L44 142L43 141z"/>
<path style="fill:#a0a0a0; stroke:none;" d="M52 141L53 142L52 141z"/>
<path style="fill:#9f9f9f; stroke:none;" d="M76 141L77 142L76 141z"/>
<path style="fill:#6f6f6f; stroke:none;" d="M77 141L78 142L77 141z"/>
<path style="fill:#3f3f3f; stroke:none;" d="M78 141L79 142L78 141z"/>
<path style="fill:#4f4f4f; stroke:none;" d="M88 141L89 142L88 141z"/>
<path style="fill:#8f8f8f; stroke:none;" d="M89 141L90 142L89 141z"/>
<path style="fill:#cfcfcf; stroke:none;" d="M90 141L91 142L90 141z"/>
<path style="fill:#bfbfbf; stroke:none;" d="M107 141L108 142L107 141z"/>
<path style="fill:#7f7f7f; stroke:none;" d="M108 141L109 142L108 141z"/>
<path style="fill:#4f4f4f; stroke:none;" d="M109 141L110 142L109 141z"/>
<path style="fill:#3f3f3f; stroke:none;" d="M119 141L120 142L119 141z"/>
<path style="fill:#6f6f6f; stroke:none;" d="M120 141L121 142L120 141z"/>
<path style="fill:#afafaf; stroke:none;" d="M121 141L122 142L121 141z"/>
<path style="fill:#949494; stroke:none;" d="M140 141L141 142L140 141z"/>
<path style="fill:#cfcfcf; stroke:none;" d="M5 142L6 143L5 142z"/>
<path style="fill:#7f7f7f; stroke:none;" d="M14 142L15 143L14 142z"/>
<path style="fill:#505050; stroke:none;" d="M20 142L21 143L20 142z"/>
<path style="fill:#b0b0b0; stroke:none;" d="M21 142L22 143L21 142z"/>
<path style="fill:#afafaf; stroke:none;" d="M29 142L30 143L29 142z"/>
<path style="fill:#4f4f4f; stroke:none;" d="M30 142L31 143L30 142z"/>
<path style="fill:#404040; stroke:none;" d="M36 142L37 143L36 142z"/>
<path style="fill:#a0a0a0; stroke:none;" d="M37 142L38 143L37 142z"/>
<path style="fill:#2f2f2f; stroke:none;" d="M45 142L46 143L45 142z"/>
<path style="fill:#707070; stroke:none;" d="M54 142L55 143L54 142z"/>
<path style="fill:#bfbfbf; stroke:none;" d="M82.6667 142.333L82.6667 142.667L83.3333 142.667L83 142.333L82.6667 142.333z"/>
<path style="fill:#cfcfcf; stroke:none;" d="M114.667 142.333L114.667 142.667L115.333 142.667L115 142.333L114.667 142.333z"/>
<path style="fill:#909090; stroke:none;" d="M139 142L140 143L139 142z"/>
<path style="fill:#dcdcdc; stroke:none;" d="M189 142L189 145L189.694 144.25L189.694 143.194L189.694 142.75L189 142z"/>
<path style="fill:#6f6f6f; stroke:none;" d="M5 143L6 144L5 143z"/>
<path style="fill:#303030; stroke:none;" d="M6 143L7 144L6 143z"/>
<path style="fill:#a0a0a0; stroke:none;" d="M7 143L8 144L7 143z"/>
<path style="fill:#7f7f7f; stroke:none;" d="M16 143L17 144L16 143z"/>
<path style="fill:#808080; stroke:none;" d="M23 143L24 144L23 143z"/>
<path style="fill:#7f7f7f; stroke:none;" d="M32 143L33 144L32 143z"/>
<path style="fill:#505050; stroke:none;" d="M39 143L40 144L39 143z"/>
<path style="fill:#a0a0a0; stroke:none;" d="M40 143L41 144L40 143z"/>
<path style="fill:#7f7f7f; stroke:none;" d="M45 143L46 144L45 143z"/>
<path style="fill:#505050; stroke:none;" d="M56 143L57 144L56 143z"/>
<path style="fill:#bfbfbf; stroke:none;" d="M57 143L58 144L57 143z"/>
<path style="fill:#9c9c9c; stroke:none;" d="M138 143L139 144L138 143z"/>
<path style="fill:#8f8f8f; stroke:none;" d="M6 144L7 145L6 144z"/>
<path style="fill:#606060; stroke:none;" d="M9 144L10 145L9 144z"/>
<path style="fill:#bfbfbf; stroke:none;" d="M10 144L11 145L10 144z"/>
<path style="fill:#7f7f7f; stroke:none;" d="M18 144L19 145L18 144z"/>
<path style="fill:#606060; stroke:none;" d="M25 144L26 145L25 144z"/>
<path style="fill:#bfbfbf; stroke:none;" d="M26 144L27 145L26 144z"/>
<path style="fill:#9f9f9f; stroke:none;" d="M34 144L35 145L34 144z"/>
<path style="fill:#2f2f2f; stroke:none;" d="M35 144L36 145L35 144z"/>
<path style="fill:#303030; stroke:none;" d="M42 144L43 145L42 144z"/>
<path style="fill:#808080; stroke:none;" d="M43.6667 144.333L44 144.667L44.3333 144.667L44 144.333L43.6667 144.333z"/>
<path style="fill:#404040; stroke:none;" d="M45 144L46 145L45 144z"/>
<path style="fill:#303030; stroke:none;" d="M58 144L59 145L58 144z"/>
<path style="fill:#a0a0a0; stroke:none;" d="M59 144L60 145L59 144z"/>
<path style="fill:#a8a8a8; stroke:none;" d="M137 144L138 145L137 144z"/>
<path style="fill:#bfbfbf; stroke:none;" d="M7 145L8 146L7 145z"/>
<path style="fill:#909090; stroke:none;" d="M12 145L13 146L12 145z"/>
<path style="fill:#7f7f7f; stroke:none;" d="M20 145L21 146L20 145z"/>
<path style="fill:#909090; stroke:none;" d="M28 145L29 146L28 145z"/>
<path style="fill:#bfbfbf; stroke:none;" d="M36 145L37 146L36 145z"/>
<path style="fill:#4f4f4f; stroke:none;" d="M37 145L38 146L37 145z"/>
<path style="fill:#a0a0a0; stroke:none;" d="M61 145L62 146L61 145z"/>
<path style="fill:#7f7f7f; stroke:none;" d="M9 146L10 147L9 146z"/>
<path style="fill:#606060; stroke:none;" d="M14 146L15 147L14 146z"/>
<path style="fill:#bfbfbf; stroke:none;" d="M15 146L16 147L15 146z"/>
<path style="fill:#7f7f7f; stroke:none;" d="M22 146L23 147L22 146z"/>
<path style="fill:#606060; stroke:none;" d="M30 146L31 147L30 146z"/>
<path style="fill:#cfcfcf; stroke:none;" d="M31 146L32 147L31 146z"/>
<path style="fill:#5f5f5f; stroke:none;" d="M39 146L40 147L39 146z"/>
<path style="fill:#808080; stroke:none;" d="M63 146L64 147L63 146z"/>
<path style="fill:#3f3f3f; stroke:none;" d="M136 146L137 147L136 146z"/>
<path style="fill:#2d2d2d; stroke:none;" d="M188 146L189 147L188 146z"/>
<path style="fill:#5f5f5f; stroke:none;" d="M11 147L12 148L11 147z"/>
<path style="fill:#808080; stroke:none;" d="M17 147L18 148L17 147z"/>
<path style="fill:#9f9f9f; stroke:none;" d="M24 147L25 148L24 147z"/>
<path style="fill:#404040; stroke:none;" d="M32 147L33 148L32 147z"/>
<path style="fill:#b0b0b0; stroke:none;" d="M33 147L34 148L33 147z"/>
<path style="fill:#cfcfcf; stroke:none;" d="M40 147L41 148L40 147z"/>
<path style="fill:#3f3f3f; stroke:none;" d="M41 147L42 148L41 147z"/>
<path style="fill:#afafaf; stroke:none;" d="M65 147L66 148L65 147z"/>
<path style="fill:#b6b6b6; stroke:none;" d="M135 147L136 148L135 147z"/>
<path style="fill:#929292; stroke:none;" d="M188 147L189 148L188 147z"/>
<path style="fill:#5f5f5f; stroke:none;" d="M13 148L14 149L13 148z"/>
<path style="fill:#505050; stroke:none;" d="M19 148L20 149L19 148z"/>
<path style="fill:#b0b0b0; stroke:none;" d="M20 148L21 149L20 148z"/>
<path style="fill:#afafaf; stroke:none;" d="M26 148L27 149L26 148z"/>
<path style="fill:#3f3f3f; stroke:none;" d="M27 148L28 149L27 148z"/>
<path style="fill:#a0a0a0; stroke:none;" d="M35 148L36 149L35 148z"/>
<path style="fill:#8f8f8f; stroke:none;" d="M42 148L43 149L42 148M66 148L67 149L66 148z"/>
<path style="fill:#404040; stroke:none;" d="M135 148L136 149L135 148z"/>
<path style="fill:#5f5f5f; stroke:none;" d="M15 149L16 150L15 149z"/>
<path style="fill:#808080; stroke:none;" d="M22 149L23 150L22 149z"/>
<path style="fill:#bfbfbf; stroke:none;" d="M28 149L29 150L28 149z"/>
<path style="fill:#5f5f5f; stroke:none;" d="M29 149L30 150L29 149z"/>
<path style="fill:#606060; stroke:none;" d="M37 149L38 150L37 149z"/>
<path style="fill:#b0b0b0; stroke:none;" d="M38 149L39 150L38 149z"/>
<path style="fill:#9f9f9f; stroke:none;" d="M67 149L68 150L67 149z"/>
<path style="fill:#cecece; stroke:none;" d="M134 149L135 150L134 149z"/>
<path style="fill:#737373; stroke:none;" d="M187 149L188 150L187 149z"/>
<path style="fill:#5f5f5f; stroke:none;" d="M17 150L18 151L17 150z"/>
<path style="fill:#505050; stroke:none;" d="M24 150L25 151L24 150z"/>
<path style="fill:#a0a0a0; stroke:none;" d="M25 150L26 151L25 150z"/>
<path style="fill:#7f7f7f; stroke:none;" d="M31 150L32 151L31 150z"/>
<path style="fill:#404040; stroke:none;" d="M40.6667 150.333L41 150.667L41.3333 150.667L41 150.333L40.6667 150.333z"/>
<path style="fill:#5e5e5e; stroke:none;" d="M134 150L135 151L134 150z"/>
<path style="fill:#7f7f7f; stroke:none;" d="M19 151L20 152L19 151z"/>
<path style="fill:#707070; stroke:none;" d="M27 151L28 152L27 151z"/>
<path style="fill:#9f9f9f; stroke:none;" d="M33 151L34 152L33 151z"/>
<path style="fill:#2f2f2f; stroke:none;" d="M34 151L35 152L34 151z"/>
<path style="fill:#5f5f5f; stroke:none;" d="M68 151L69 152L68 151z"/>
<path style="fill:#afafaf; stroke:none;" d="M186 151L187 152L186 151z"/>
<path style="fill:#7f7f7f; stroke:none;" d="M21 152L22 153L21 152z"/>
<path style="fill:#404040; stroke:none;" d="M29 152L30 153L29 152z"/>
<path style="fill:#a0a0a0; stroke:none;" d="M30 152L31 153L30 152z"/>
<path style="fill:#bfbfbf; stroke:none;" d="M35 152L36 153L35 152z"/>
<path style="fill:#5f5f5f; stroke:none;" d="M36 152L37 153L36 152z"/>
<path style="fill:#979797; stroke:none;" d="M133 152L134 153L133 152z"/>
<path style="fill:#4d4d4d; stroke:none;" d="M185 152L186 153L185 152z"/>
<path style="fill:#9f9f9f; stroke:none;" d="M23 153L24 154L23 153z"/>
<path style="fill:#707070; stroke:none;" d="M32 153L33 154L32 153z"/>
<path style="fill:#cfcfcf; stroke:none;" d="M33 153L34 154L33 153z"/>
<path style="fill:#8f8f8f; stroke:none;" d="M38 153L39 154L38 153z"/>
<path style="fill:#2f2f2f; stroke:none;" d="M39 153L40 154L39 153z"/>
<path style="fill:#5f5f5f; stroke:none;" d="M69 153L70 154L69 153z"/>
<path style="fill:#323232; stroke:none;" d="M184 153L185 154L184 153z"/>
<path style="fill:#9f9f9f; stroke:none;" d="M25 154L26 155L25 154z"/>
<path style="fill:#2f2f2f; stroke:none;" d="M26 154L27 155L26 154z"/>
<path style="fill:#303030; stroke:none;" d="M34 154L35 155L34 154z"/>
<path style="fill:#a0a0a0; stroke:none;" d="M35 154L36 155L35 154z"/>
<path style="fill:#7f7f7f; stroke:none;" d="M40 154L40 157L40.6944 156.25L40.6944 155.194L40.6944 154.75L40 154z"/>
<path style="fill:#b6b6b6; stroke:none;" d="M132 154L133 155L132 154z"/>
<path style="fill:#bfbfbf; stroke:none;" d="M27 155L28 156L27 155z"/>
<path style="fill:#3f3f3f; stroke:none;" d="M28 155L29 156L28 155z"/>
<path style="fill:#606060; stroke:none;" d="M37 155L38 156L37 155z"/>
<path style="fill:#cfcfcf; stroke:none;" d="M38 155L39 156L38 155z"/>
<path style="fill:#404040; stroke:none;" d="M70 155L71 156L70 155z"/>
<path style="fill:#333333; stroke:none;" d="M132 155L133 156L132 155z"/>
<path style="fill:#bfbfbf; stroke:none;" d="M29 156L30 157L29 156z"/>
<path style="fill:#4f4f4f; stroke:none;" d="M30 156L31 157L30 156z"/>
<path style="fill:#303030; stroke:none;" d="M39 156L40 157L39 156z"/>
<path style="fill:#9f9f9f; stroke:none;" d="M71 156L72 157L71 156z"/>
<path style="fill:#a3a3a3; stroke:none;" d="M131 156L132 157L131 156z"/>
<path style="fill:#5f5f5f; stroke:none;" d="M32 157L33 158L32 157z"/>
<path style="fill:#cfcfcf; stroke:none;" d="M72 157L73 158L72 157z"/>
<path style="fill:#d0d0d0; stroke:none;" d="M130 157L131 158L130 157z"/>
<path style="fill:#5f5f5f; stroke:none;" d="M34 158L35 159L34 158z"/>
<path style="fill:#afafaf; stroke:none;" d="M73 158L74 159L73 158z"/>
<path style="fill:#787878; stroke:none;" d="M129 158L130 159L129 158z"/>
<path style="fill:#353535; stroke:none;" d="M179 158L180 159L179 158z"/>
<path style="fill:#5f5f5f; stroke:none;" d="M36 159L37 160L36 159z"/>
<path style="fill:#505050; stroke:none;" d="M74 159L75 160L74 159z"/>
<path style="fill:#a9a9a9; stroke:none;" d="M126 159L127 160L126 159z"/>
<path style="fill:#6e6e6e; stroke:none;" d="M127 159L128 160L127 159z"/>
<path style="fill:#484848; stroke:none;" d="M178 159L179 160L178 159z"/>
<path style="fill:#7f7f7f; stroke:none;" d="M38 160L39 161L38 160z"/>
<path style="fill:#808080; stroke:none;" d="M76 160L77 161L76 160z"/>
<path style="fill:#949494; stroke:none;" d="M123 160L124 161L123 160z"/>
<path style="fill:#464646; stroke:none;" d="M124 160L125 161L124 160z"/>
<path style="fill:#818181; stroke:none;" d="M177 160L178 161L177 160z"/>
<path style="fill:#7f7f7f; stroke:none;" d="M40 161L41 162L40 161z"/>
<path style="fill:#808080; stroke:none;" d="M78 161L79 162L78 161z"/>
<path style="fill:#acacac; stroke:none;" d="M119 161L120 162L119 161z"/>
<path style="fill:#6d6d6d; stroke:none;" d="M120 161L121 162L120 161z"/>
<path style="fill:#2b2b2b; stroke:none;" d="M121 161L122 162L121 161z"/>
<path style="fill:#cacaca; stroke:none;" d="M176 161L177 162L176 161z"/>
<path style="fill:#bfbfbf; stroke:none;" d="M42 162L43 163L42 162z"/>
<path style="fill:#5f5f5f; stroke:none;" d="M43 162L44 163L43 162z"/>
<path style="fill:#505050; stroke:none;" d="M80 162L81 163L80 162z"/>
<path style="fill:#b0b0b0; stroke:none;" d="M81 162L82 163L81 162z"/>
<path style="fill:#b7b7b7; stroke:none;" d="M115 162L116 163L115 162z"/>
<path style="fill:#6f6f6f; stroke:none;" d="M116 162L117 163L116 162z"/>
<path style="fill:#2d2d2d; stroke:none;" d="M117 162L118 163L117 162z"/>
<path style="fill:#737373; stroke:none;" d="M174 162L175 163L174 162z"/>
<path style="fill:#9f9f9f; stroke:none;" d="M45 163L46 164L45 163z"/>
<path style="fill:#2f2f2f; stroke:none;" d="M46 163L47 164L46 163z"/>
<path style="fill:#7f7f7f; stroke:none;" d="M69 163L69.7222 163.722L70.25 163.75L72 164L71.2778 163.278L70.75 163.25L69 163z"/>
<path style="fill:#4f4f4f; stroke:none;" d="M72 163L73 164L72 163z"/>
<path style="fill:#707070; stroke:none;" d="M83 163L84 164L83 163z"/>
<path style="fill:#cfcfcf; stroke:none;" d="M84 163L85 164L84 163z"/>
<path style="fill:#a0a0a0; stroke:none;" d="M112 163L113 164L112 163z"/>
<path style="fill:#4f4f4f; stroke:none;" d="M113 163L114 164L113 163z"/>
<path style="fill:#3f3f3f; stroke:none;" d="M130 163L130.722 163.722L131.25 163.75L133 164L132.278 163.278L131.75 163.25L130 163z"/>
<path style="fill:#303030; stroke:none;" d="M172 163L173 164L172 163z"/>
<path style="fill:#cfcfcf; stroke:none;" d="M173 163L174 164L173 163M47 164L48 165L47 164z"/>
<path style="fill:#6f6f6f; stroke:none;" d="M48 164L49 165L48 164M66 164L67 165L66 164z"/>
<path style="fill:#cfcfcf; stroke:none;" d="M67 164L68 165L67 164M74 164L75 165L74 164z"/>
<path style="fill:#6f6f6f; stroke:none;" d="M75 164L76 165L75 164z"/>
<path style="fill:#606060; stroke:none;" d="M86 164L87 165L86 164z"/>
<path style="fill:#b0b0b0; stroke:none;" d="M87 164L88 165L87 164z"/>
<path style="fill:#b1b1b1; stroke:none;" d="M108 164L109 165L108 164z"/>
<path style="fill:#717171; stroke:none;" d="M109 164L110 165L109 164z"/>
<path style="fill:#2d2d2d; stroke:none;" d="M110 164L111 165L110 164z"/>
<path style="fill:#616161; stroke:none;" d="M125 164L125.722 164.722L126.25 164.75L128 165L127.278 164.278L126.75 164.25L125 164z"/>
<path style="fill:#cbcbcb; stroke:none;" d="M128 164L129 165L128 164z"/>
<path style="fill:#868686; stroke:none;" d="M135 164L136 165L135 164z"/>
<path style="fill:#a0a0a0; stroke:none;" d="M171 164L172 165L171 164z"/>
<path style="fill:#cfcfcf; stroke:none;" d="M50 165L51 166L50 165z"/>
<path style="fill:#6f6f6f; stroke:none;" d="M51 165L52 166L51 165z"/>
<path style="fill:#2f2f2f; stroke:none;" d="M52 165L53 166L52 165z"/>
<path style="fill:#4f4f4f; stroke:none;" d="M63 165L64 166L63 165z"/>
<path style="fill:#9f9f9f; stroke:none;" d="M64 165L65 166L64 165z"/>
<path style="fill:#cfcfcf; stroke:none;" d="M77 165L78 166L77 165z"/>
<path style="fill:#6f6f6f; stroke:none;" d="M78 165L79 166L78 165z"/>
<path style="fill:#2f2f2f; stroke:none;" d="M79 165L80 166L79 165z"/>
<path style="fill:#505050; stroke:none;" d="M89 165L90 166L89 165z"/>
<path style="fill:#909090; stroke:none;" d="M90 165L91 166L90 165z"/>
<path style="fill:#838383; stroke:none;" d="M105 165L106 166L105 165z"/>
<path style="fill:#353535; stroke:none;" d="M106 165L107 166L106 165z"/>
<path style="fill:#2c2c2c; stroke:none;" d="M121 165L122 166L121 165z"/>
<path style="fill:#747474; stroke:none;" d="M122 165L123 166L122 165z"/>
<path style="fill:#bcbcbc; stroke:none;" d="M123 165L124 166L123 165z"/>
<path style="fill:#575757; stroke:none;" d="M137 165L138 166L137 165z"/>
<path style="fill:#9a9a9a; stroke:none;" d="M169 165L170 166L169 165z"/>
<path style="fill:#9f9f9f; stroke:none;" d="M54.6667 166.333L54.6667 166.667L55.3333 166.667L55 166.333L54.6667 166.333z"/>
<path style="fill:#7f7f7f; stroke:none;" d="M56 166L56.7778 166.722L57.3056 166.75L58.0556 166.944L58.9722 166.972L61 167L60.2222 166.278L59.6944 166.25L58.9444 166.056L58.0278 166.028L56 166z"/>
<path style="fill:#bfbfbf; stroke:none;" d="M61 166L62 167L61 166z"/>
<path style="fill:#8f8f8f; stroke:none;" d="M81 166L82 167L81 166z"/>
<path style="fill:#2f2f2f; stroke:none;" d="M82 166L83 167L82 166z"/>
<path style="fill:#606060; stroke:none;" d="M93 166L94 167L93 166z"/>
<path style="fill:#a0a0a0; stroke:none;" d="M94 166L95 167L94 166z"/>
<path style="fill:#5c5c5c; stroke:none;" d="M102 166L102 169L102.694 168.25L102.694 167.806L102.694 166.75L102 166z"/>
<path style="fill:#2b2b2b; stroke:none;" d="M103 166L104 167L103 166z"/>
<path style="fill:#505050; stroke:none;" d="M118 166L119 167L118 166z"/>
<path style="fill:#989898; stroke:none;" d="M119 166L120 167L119 166z"/>
<path style="fill:#949494; stroke:none;" d="M138 166L139 167L138 166z"/>
<path style="fill:#a0a0a0; stroke:none;" d="M167 166L168 167L167 166z"/>
<path style="fill:#8f8f8f; stroke:none;" d="M84 167L85 168L84 167z"/>
<path style="fill:#606060; stroke:none;" d="M97 167L98 168L97 167z"/>
<path style="fill:#909090; stroke:none;" d="M98 167L99 168L98 167z"/>
<path style="fill:#cfcfcf; stroke:none;" d="M99 167L100 168L99 167z"/>
<path style="fill:#383838; stroke:none;" d="M114 167L115 168L114 167z"/>
<path style="fill:#787878; stroke:none;" d="M115 167L116 168L115 167z"/>
<path style="fill:#bebebe; stroke:none;" d="M116 167L117 168L116 167z"/>
<path style="fill:#404040; stroke:none;" d="M140 167L141 168L140 167z"/>
<path style="fill:#454545; stroke:none;" d="M164 167L165 168L164 167z"/>
<path style="fill:#a7a7a7; stroke:none;" d="M165 167L166 168L165 167z"/>
<path style="fill:#9f9f9f; stroke:none;" d="M86 168L87 169L86 168z"/>
<path style="fill:#404040; stroke:none;" d="M101 168L102 169L101 168z"/>
<path style="fill:#8b8b8b; stroke:none;" d="M103.667 168.333L103.667 168.667L104.333 168.667L104.333 168.333L103.667 168.333z"/>
<path style="fill:#3f3f3f; stroke:none;" d="M105 168L105.778 169.056L106.306 169.111L107.111 169.333L108.944 169.194L109.5 169.083L111 169L110.222 168.278L109.694 168.25L108.889 168.056L108.028 168.028L107.056 168L105 168z"/>
<path style="fill:#7f7f7f; stroke:none;" d="M111 168L112 169L111 168z"/>
<path style="fill:#c3c3c3; stroke:none;" d="M112 168L113 169L112 168z"/>
<path style="fill:#a6a6a6; stroke:none;" d="M141 168L142 169L141 168z"/>
<path style="fill:#494949; stroke:none;" d="M161 168L162 169L161 168z"/>
<path style="fill:#9d9d9d; stroke:none;" d="M162 168L163 169L162 168z"/>
<path style="fill:#a0a0a0; stroke:none;" d="M85 169L86 170L85 169z"/>
<path style="fill:#606060; stroke:none;" d="M86 169L87 170L86 169z"/>
<path style="fill:#808080; stroke:none;" d="M107 169L108 170L107 169z"/>
<path style="fill:#b0b0b0; stroke:none;" d="M108 169L109 170L108 169z"/>
<path style="fill:#838383; stroke:none;" d="M143 169L144 170L143 169z"/>
<path style="fill:#363636; stroke:none;" d="M144 169L145 170L144 169z"/>
<path style="fill:#414141; stroke:none;" d="M157 169L158 170L157 169z"/>
<path style="fill:#7e7e7e; stroke:none;" d="M158 169L159 170L158 169z"/>
<path style="fill:#c0c0c0; stroke:none;" d="M159 169L160 170L159 169M77 170L77.7222 170.722L78.25 170.75L80 171L79.2778 170.278L78.75 170.25L77 170z"/>
<path style="fill:#707070; stroke:none;" d="M80.6667 170.333L80.6667 170.667L81.3333 170.667L81.3333 170.333L80.6667 170.333z"/>
<path style="fill:#404040; stroke:none;" d="M82 170L83 171L82 170M111 170L112 171L111 170z"/>
<path style="fill:#a0a0a0; stroke:none;" d="M112.667 170.333L113 170.667L113.333 170.667L113.333 170.333L112.667 170.333z"/>
<path style="fill:#cfcfcf; stroke:none;" d="M114 170L115 171L114 170z"/>
<path style="fill:#b2b2b2; stroke:none;" d="M146 170L146.722 170.722L147.25 170.75L149 171L148.278 170.278L147.75 170.25L146 170z"/>
<path style="fill:#949494; stroke:none;" d="M149 170L149.778 170.722L150.306 170.75L151.056 170.944L151.972 170.972L154 171L153.222 170.278L152.694 170.25L151.944 170.056L151.028 170.028L149 170z"/>
<path style="fill:#c4c4c4; stroke:none;" d="M154 170L155 171L154 170z"/>
<path style="fill:#c0c0c0; stroke:none;" d="M61 171L61.7778 171.722L62.3056 171.75L63.1111 171.944L63.9722 171.972L64.9444 172L67 172L66.2222 171.278L65.6944 171.25L64.8889 171.056L64.0278 171.028L63.0556 171L61 171z"/>
<path style="fill:#808080; stroke:none;" d="M67 171L67.7778 171.722L68.25 171.75L69.0556 171.944L71 172L70.2222 171.278L69.75 171.25L68.9444 171.056L67 171z"/>
<path style="fill:#404040; stroke:none;" d="M71 171L71.7778 171.722L72.25 171.75L73.0556 171.944L75 172L74.2222 171.278L73.75 171.25L72.9444 171.056L71 171z"/>
<path style="fill:#505050; stroke:none;" d="M116.667 171.333L117 171.667L117.333 171.667L117.333 171.333L116.667 171.333z"/>
<path style="fill:#808080; stroke:none;" d="M118 171L119 172L118 171z"/>
<path style="fill:#cfcfcf; stroke:none;" d="M119.667 171.333L120 171.667L120.333 171.667L120.333 171.333L119.667 171.333z"/>
<path style="fill:#b0b0b0; stroke:none;" d="M50 172L51 173L50 172z"/>
<path style="fill:#808080; stroke:none;" d="M51.6667 172.333L51.6667 172.667L52.3333 172.667L52 172.333L51.6667 172.333z"/>
<path style="fill:#404040; stroke:none;" d="M53 172L53.7778 172.722L54.25 172.75L55.0556 172.944L57 173L56.2222 172.278L55.75 172.25L54.9444 172.056L53 172z"/>
<path style="fill:#3f3f3f; stroke:none;" d="M97.6667 172.333L97.6667 172.667L98.3333 172.667L98.3333 172.333L97.6667 172.333z"/>
<path style="fill:#505050; stroke:none;" d="M122.667 172.333L122.667 172.667L123.333 172.667L123.333 172.333L122.667 172.333z"/>
<path style="fill:#808080; stroke:none;" d="M124 172L125 173L124 172z"/>
<path style="fill:#cfcfcf; stroke:none;" d="M125.667 172.333L126 172.667L126.333 172.667L126.333 172.333L125.667 172.333z"/>
<path style="fill:#bfbfbf; stroke:none;" d="M47 173L48 174L47 173z"/>
<path style="fill:#606060; stroke:none;" d="M48 173L49 174L48 173z"/>
<path style="fill:#6f6f6f; stroke:none;" d="M94 173L95 174L94 173z"/>
<path style="fill:#afafaf; stroke:none;" d="M95 173L96 174L95 173z"/>
<path style="fill:#cfcfcf; stroke:none;" d="M100 173L101 174L100 173z"/>
<path style="fill:#8f8f8f; stroke:none;" d="M101 173L102 174L101 173z"/>
<path style="fill:#4f4f4f; stroke:none;" d="M102 173L103 174L102 173z"/>
<path style="fill:#404040; stroke:none;" d="M129 173L130 174L129 173z"/>
<path style="fill:#909090; stroke:none;" d="M130.667 173.333L130.667 173.667L131.333 173.667L131 173.333L130.667 173.333z"/>
<path style="fill:#dfdfdf; stroke:none;" d="M132.667 173.333L133 173.667L133.333 173.667L133 173.333L132.667 173.333z"/>
<path style="fill:#cfcfcf; stroke:none;" d="M45 174L46 175L45 174z"/>
<path style="fill:#404040; stroke:none;" d="M46 174L47 175L46 174z"/>
<path style="fill:#2f2f2f; stroke:none;" d="M90 174L91 175L90 174z"/>
<path style="fill:#6f6f6f; stroke:none;" d="M91 174L92 175L91 174z"/>
<path style="fill:#cfcfcf; stroke:none;" d="M92 174L93 175L92 174z"/>
<path style="fill:#afafaf; stroke:none;" d="M104 174L105 175L104 174z"/>
<path style="fill:#5f5f5f; stroke:none;" d="M105 174L106 175L105 174z"/>
<path style="fill:#505050; stroke:none;" d="M135.667 174.333L136 174.667L136.333 174.667L136.333 174.333L135.667 174.333z"/>
<path style="fill:#a0a0a0; stroke:none;" d="M137 174L137.722 174.722L138.25 174.75L140 175L139.278 174.278L138.75 174.25L137 174z"/>
<path style="fill:#cfcfcf; stroke:none;" d="M44 175L45 176L44 175z"/>
<path style="fill:#2f2f2f; stroke:none;" d="M87 175L88 176L87 175z"/>
<path style="fill:#8f8f8f; stroke:none;" d="M88 175L89 176L88 175z"/>
<path style="fill:#afafaf; stroke:none;" d="M107 175L108 176L107 175z"/>
<path style="fill:#4f4f4f; stroke:none;" d="M108 175L109 176L108 175z"/>
<path style="fill:#404040; stroke:none;" d="M142 175L142.722 175.722L143.25 175.75L145 176L144.278 175.278L143.75 175.25L142 175z"/>
<path style="fill:#808080; stroke:none;" d="M145 175L145.722 175.722L146.25 175.75L148 176L147.278 175.278L146.75 175.25L145 175z"/>
<path style="fill:#cfcfcf; stroke:none;" d="M148 175L149 176L148 175z"/>
<path style="fill:#2f2f2f; stroke:none;" d="M84 176L85 177L84 176z"/>
<path style="fill:#8f8f8f; stroke:none;" d="M85 176L86 177L85 176z"/>
<path style="fill:#9f9f9f; stroke:none;" d="M110 176L111 177L110 176z"/>
<path style="fill:#2f2f2f; stroke:none;" d="M111 176L112 177L111 176z"/>
<path style="fill:#404040; stroke:none;" d="M150 176L151 177L150 176z"/>
<path style="fill:#707070; stroke:none;" d="M151 176L152 177L151 176z"/>
<path style="fill:#b0b0b0; stroke:none;" d="M152 176L153 177L152 176z"/>
<path style="fill:#cfcfcf; stroke:none;" d="M43 177L44 178L43 177z"/>
<path style="fill:#6f6f6f; stroke:none;" d="M82 177L83 178L82 177M113 177L114 178L113 177z"/>
<path style="fill:#a0a0a0; stroke:none;" d="M154 177L155 178L154 177z"/>
<path style="fill:#7f7f7f; stroke:none;" d="M43 178L43 182L43.7222 181.222L43.7222 180.722L43.8889 180L43.7222 178.778L43 178z"/>
<path style="fill:#6f6f6f; stroke:none;" d="M79 178L80 179L79 178z"/>
<path style="fill:#cfcfcf; stroke:none;" d="M80 178L81 179L80 178z"/>
<path style="fill:#9f9f9f; stroke:none;" d="M115 178L116 179L115 178z"/>
<path style="fill:#3f3f3f; stroke:none;" d="M116 178L117 179L116 178z"/>
<path style="fill:#404040; stroke:none;" d="M155 178L156 179L155 178z"/>
<path style="fill:#5f5f5f; stroke:none;" d="M76 179L77 180L76 179z"/>
<path style="fill:#afafaf; stroke:none;" d="M77 179L78 180L77 179z"/>
<path style="fill:#5f5f5f; stroke:none;" d="M118 179L119 180L118 179z"/>
<path style="fill:#303030; stroke:none;" d="M156 179L157 180L156 179z"/>
<path style="fill:#2f2f2f; stroke:none;" d="M73 180L74 181L73 180z"/>
<path style="fill:#9f9f9f; stroke:none;" d="M74 180L75 181L74 180z"/>
<path style="fill:#8f8f8f; stroke:none;" d="M120 180L121 181L120 180z"/>
<path style="fill:#6f6f6f; stroke:none;" d="M157 180L158 181L157 180M71 181L72 182L71 181z"/>
<path style="fill:#afafaf; stroke:none;" d="M122 181L123 182L122 181z"/>
<path style="fill:#3f3f3f; stroke:none;" d="M123 181L124 182L123 181z"/>
<path style="fill:#cfcfcf; stroke:none;" d="M43 182L44 183L43 182z"/>
<path style="fill:#9f9f9f; stroke:none;" d="M69 182L70 183L69 182z"/>
<path style="fill:#bfbfbf; stroke:none;" d="M124 182L125 183L124 182z"/>
<path style="fill:#3f3f3f; stroke:none;" d="M125 182L126 183L125 182z"/>
<path style="fill:#7f7f7f; stroke:none;" d="M158 182L158 185L158.694 184.25L158.694 183.194L158.694 182.75L158 182z"/>
<path style="fill:#6f6f6f; stroke:none;" d="M66 183L67 184L66 183z"/>
<path style="fill:#cfcfcf; stroke:none;" d="M67 183L68 184L67 183M126 183L127 184L126 183z"/>
<path style="fill:#6f6f6f; stroke:none;" d="M127 183L128 184L127 183z"/>
<path style="fill:#8f8f8f; stroke:none;" d="M44 184L45 185L44 184z"/>
<path style="fill:#5f5f5f; stroke:none;" d="M63 184L64 185L63 184z"/>
<path style="fill:#bfbfbf; stroke:none;" d="M64 184L65 185L64 184z"/>
<path style="fill:#afafaf; stroke:none;" d="M129 184L130 185L129 184z"/>
<path style="fill:#5f5f5f; stroke:none;" d="M130 184L131 185L130 184z"/>
<path style="fill:#3f3f3f; stroke:none;" d="M45 185L46 186L45 185z"/>
<path style="fill:#2f2f2f; stroke:none;" d="M60 185L61 186L60 185z"/>
<path style="fill:#9f9f9f; stroke:none;" d="M61 185L62 186L61 185z"/>
<path style="fill:#5f5f5f; stroke:none;" d="M132 185L133 186L132 185z"/>
<path style="fill:#afafaf; stroke:none;" d="M158 185L159 186L158 185z"/>
<path style="fill:#3f3f3f; stroke:none;" d="M46 186L47 187L46 186z"/>
<path style="fill:#2f2f2f; stroke:none;" d="M57 186L58 187L57 186z"/>
<path style="fill:#8f8f8f; stroke:none;" d="M58 186L59 187L58 186z"/>
<path style="fill:#7f7f7f; stroke:none;" d="M134 186L135 187L134 186z"/>
<path style="fill:#8f8f8f; stroke:none;" d="M47 187L48 188L47 187z"/>
<path style="fill:#3f3f3f; stroke:none;" d="M48 187L49 188L48 187M53 187L54 188L53 187z"/>
<path style="fill:#6f6f6f; stroke:none;" d="M54 187L55 188L54 187z"/>
<path style="fill:#9f9f9f; stroke:none;" d="M55 187L56 188L55 187z"/>
<path style="fill:#afafaf; stroke:none;" d="M136 187L137 188L136 187z"/>
<path style="fill:#5f5f5f; stroke:none;" d="M137 187L138 188L137 187z"/>
<path style="fill:#3f3f3f; stroke:none;" d="M157 187L158 188L157 187z"/>
<path style="fill:#8f8f8f; stroke:none;" d="M139 188L140 189L139 188z"/>
<path style="fill:#bfbfbf; stroke:none;" d="M157 188L158 189L157 188z"/>
<path style="fill:#afafaf; stroke:none;" d="M141 189L142 190L141 189z"/>
<path style="fill:#4f4f4f; stroke:none;" d="M142 189L143 190L142 189z"/>
<path style="fill:#3f3f3f; stroke:none;" d="M156 189L157 190L156 189z"/>
<path style="fill:#8f8f8f; stroke:none;" d="M144 190L145 191L144 190z"/>
<path style="fill:#2f2f2f; stroke:none;" d="M145 190L146 191L145 190M155 190L156 191L155 190z"/>
<path style="fill:#afafaf; stroke:none;" d="M147 191L148 192L147 191z"/>
<path style="fill:#7f7f7f; stroke:none;" d="M148 191L149 192L148 191z"/>
<path style="fill:#3f3f3f; stroke:none;" d="M149.667 191.333L150 191.667L150.333 191.667L150 191.333L149.667 191.333z"/>
<path style="fill:#4f4f4f; stroke:none;" d="M152.667 191.333L153 191.667L153.333 191.667L153 191.333L152.667 191.333z"/>
<path style="fill:#9f9f9f; stroke:none;" d="M154 191L155 192L154 191z"/>
</svg>
